<svg id="Слой_1" data-name="Слой 1" xmlns="http://www.w3.org/2000/svg" xmlns:xlink="http://www.w3.org/1999/xlink" viewBox="0 0 50 50"><defs><style>.cls-1{fill:url(#Безымянный_градиент_19);}.cls-2{fill:url(#Безымянный_градиент_39);}.cls-3{fill:url(#Безымянный_градиент_26);}.cls-4{fill:url(#Безымянный_градиент_19-2);}</style><linearGradient id="Безымянный_градиент_19" x1="27.19" y1="5.13" x2="27.19" y2="45.84" gradientUnits="userSpaceOnUse"><stop offset="0" stop-color="#050606"/><stop offset="1" stop-color="#3e3e3e"/></linearGradient><linearGradient id="Безымянный_градиент_39" x1="25" y1="0.17" x2="25" y2="0.3" gradientUnits="userSpaceOnUse"><stop offset="0" stop-color="#f2f2f2"/><stop offset="0.16" stop-color="#f5f5f5"/><stop offset="1" stop-color="#fff"/></linearGradient><linearGradient id="Безымянный_градиент_26" x1="25" x2="25" y2="50" gradientUnits="userSpaceOnUse"><stop offset="0" stop-color="#e8e7e7"/><stop offset="0.11" stop-color="#dbdada"/><stop offset="0.51" stop-color="#adadad"/><stop offset="0.82" stop-color="#919191"/><stop offset="1" stop-color="#878787"/></linearGradient><linearGradient id="Безымянный_градиент_19-2" x1="27.93" y1="4.18" x2="27.93" y2="46.79" xlink:href="#Безымянный_градиент_19"/></defs><path class="cls-1" d="M18.13,40.13s1.51-4,2.06-4.2c0,0,.07-1.43.44-1.65S21.81,30,23,28.4A14.77,14.77,0,0,1,26.29,32l2.06,2.3S30,40.86,30.45,41v1.84s-.33.73,1.47,1.94l1.36.7a1.75,1.75,0,0,0,1.33.33,1.66,1.66,0,0,0,.73-.33V44.1l-1.62-2.61L33.46,37l-.22-.57L33,33.25l-3-3.9s-.48-.62.41-1.14-3.72-5-3.72-5l-.22.29s-.73.55-.48-1.14.89-1.17.89-1.17l.14-2.73a4,4,0,0,1,2,0,2.23,2.23,0,0,1,1.69-.58s.66-.44,1-.33,1.58-1.73,1.58-1.73,1.51.29,2.13.44V14.46s1,4.08,2,4.31l.91-.56s-2.5-3.34-1.54-4.19l.81.59.48-.59.51-.29.59-1.25a8.78,8.78,0,0,0,2.57-.22h1.33v-.48s-1.88.29-1.22-.44h.29l0-.41L42,10.82,42,10h-.37l-.14.22-.16,0,.08.62-1.38,0v-.19h-.44l0-.19.15,0,0-.29h-.54v.29l-.07.19-1.42,0,0-.18-.23,0,0-.19s.15-.53.08-.53h-.61l-.08.29-.18.17v.19L33,10.22l0-.44-.16-.09-.06-.42-.6.07L32,9.47l-.38,0-.05.23-1.32.07-.8.81-.95,0-.22,0V9.67l.84-1.24s-.85-3.11-2.86-3.29a3.22,3.22,0,0,0-2.94,1.18l-.65,1.29L22.6,9.8l-.43-.11L19,13.51l0,2.29s-.16,0-.16.08,0,1,0,1L17.5,22.52l.46.12-.08.44s-.44.32-.05,1.24l.38.93-1.8,5.92-.95,3.73a1,1,0,0,1-1,.69c-.71,0-2.86,3.1-2.86,3.1l-.43.88s.94,2.61,1,2.69,1.42,1.1,1.42,1.1l1.78-.48,0-2.47Z" transform="translate(0 0)"/><rect class="cls-2" width="50" height="50"/><rect class="cls-3" width="50" height="50"/><path class="cls-4" d="M18.45,40.81s1.58-4.2,2.16-4.39c0,0,.07-1.5.46-1.73s1.23-4.5,2.42-6.16A15.31,15.31,0,0,1,27,32.27l2.16,2.4s1.77,6.91,2.19,7.06v1.93s-.34.76,1.54,2l1.43.74a1.94,1.94,0,0,0,1.39.34,1.8,1.8,0,0,0,.76-.34V45l-1.69-2.73-.27-4.75-.23-.6L34,33.61l-3.12-4.08s-.5-.65.42-1.19-3.88-5.27-3.88-5.27l-.23.31s-.77.57-.5-1.2.92-1.23.92-1.23l.15-2.84a4.06,4.06,0,0,1,2.12,0,2.36,2.36,0,0,1,1.77-.62s.69-.46,1-.35,1.65-1.8,1.65-1.8,1.58.3,2.23.46V14s1,4.27,2.12,4.5l1-.57s-2.61-3.51-1.61-4.39l.84.61.5-.61.54-.31.62-1.31a9,9,0,0,0,2.69-.23h1.39v-.5s-2,.31-1.27-.46h.3l0-.42-.23-.12,0-.91H43l-.15.23-.17,0,.09.65-1.45,0V9.92l-.46,0,0-.2.16,0L41,9.41h-.56v.3l-.07.2H38.88l0-.18-.24,0-.05-.2s.16-.55.09-.55H38l-.08.3-.19.17v.21L34,9.51l0-.47L33.76,9l-.06-.45-.63.07L33,8.73h-.4l0,.25-1.38.07-.84.85-1,0h-.23V8.93L30,7.63s-.89-3.25-3-3.43a3.36,3.36,0,0,0-3.07,1.22l-.68,1.36-.13,2.29L22.68,9l-3.33,4-.05,2.4s-.17,0-.17.09,0,1,0,1l-1.37,5.92.49.13-.09.46s-.46.33-.05,1.3l.4,1-1.89,6.21-1,3.89a1.06,1.06,0,0,1-1,.73c-.75,0-3,3.24-3,3.24l-.45.93,1,2.81c0,.09,1.49,1.15,1.49,1.15l1.86-.5,0-2.58Z" transform="translate(0 0)"/></svg>