<svg xmlns="http://www.w3.org/2000/svg" viewBox="0 0 50 50"><defs><style>.cls-1{fill:#040404;}.cls-2{fill:#f3cb34;}</style></defs><g id="Слой_2" data-name="Слой 2"><rect class="cls-1" width="50" height="50"/><path class="cls-2" d="M14.9,30.49l1-6.85H30.36A2.91,2.91,0,0,0,31,23.1,3.06,3.06,0,0,0,31.6,21a2.73,2.73,0,0,0-.22-.94.83.83,0,0,0-.15-.23.94.94,0,0,0-.63-.26c-1.27-.1-14.08,0-14.08,0L17,15.42q8-.12,16.1,0h.49a3.54,3.54,0,0,1,1.73.54c1.64,1.09,2.23,3.75,1.41,6.64a9.71,9.71,0,0,1-.22.95,8.38,8.38,0,0,1-1.76,3.57c-1.66,1.65-4.51,1.14-4.94,1.06L37,35.62H30.11l-6.84-7.24-3-.19-.29,2.3Z"/></g></svg>