<svg xmlns="http://www.w3.org/2000/svg" xmlns:xlink="http://www.w3.org/1999/xlink" viewBox="0 0 50 50"><defs><style>.cls-1{fill:#b27559;}.cls-2{fill:#1d1d1b;}.cls-18,.cls-25,.cls-3,.cls-4,.cls-5{fill:none;}.cls-3,.cls-4,.cls-5{stroke:#1d1d1b;}.cls-18,.cls-25,.cls-3,.cls-4,.cls-5,.cls-6,.cls-8{stroke-miterlimit:10;}.cls-3{stroke-width:1.5px;}.cls-4{stroke-width:0.5px;}.cls-10,.cls-6{fill:#b05479;}.cls-6{stroke:#010101;stroke-width:0.2px;}.cls-7{fill:url(#Безымянный_градиент_5);}.cls-8,.cls-9{fill:#f8f5c8;}.cls-8{stroke:#f8f5c8;stroke-width:0.1px;}.cls-11{fill:#773532;}.cls-12{fill:#90524b;}.cls-13{fill:#ccb0ae;}.cls-14{fill:#e9d5b7;}.cls-15{fill:#f6ae87;}.cls-16{fill:#efdbc2;}.cls-17{fill:url(#Безымянный_градиент_9);}.cls-18{stroke:#616663;}.cls-18,.cls-25{stroke-width:0.25px;}.cls-19{fill:#fbf7cd;}.cls-20{fill:#616663;}.cls-21{fill:#ebdbbd;}.cls-22{fill:#e9dcbf;}.cls-23{fill:#eaddc0;}.cls-24{fill:#c8b281;}.cls-25{stroke:#c18480;}.cls-26{fill:#f7b180;}</style><linearGradient id="Безымянный_градиент_5" x1="25.56" y1="6.59" x2="39.19" y2="6.59" gradientUnits="userSpaceOnUse"><stop offset="0" stop-color="#6f3b25"/><stop offset="1" stop-color="#491f12"/></linearGradient><linearGradient id="Безымянный_градиент_9" x1="11.84" y1="6.85" x2="20.11" y2="6.85" gradientUnits="userSpaceOnUse"><stop offset="0" stop-color="#6e2e18"/><stop offset="1" stop-color="#9a5235"/></linearGradient></defs><g id="Слой_1" data-name="Слой 1"><rect class="cls-1" width="50" height="50"/></g><g id="Слой_2" data-name="Слой 2"><path class="cls-2" d="M15.07,28.55A3,3,0,0,1,14,28.18a5.32,5.32,0,0,1-1.19-.74,5.09,5.09,0,0,1-1.13-1.5A22.63,22.63,0,0,1,9.76,21.6a11.72,11.72,0,0,1-.32-1.36c-.06-.47-.08-.95-.12-1.43-.09-1-.11-2-.12-3,0-4.07.1-7.74,0-10.39s-.17-4.3-.06-4.31a16.36,16.36,0,0,1,.61,4.28c.2,2.67.18,6.37.2,10.42,0,1,0,2,.09,2.93,0,.47.05.94.1,1.38a12.59,12.59,0,0,0,.27,1.28,25.78,25.78,0,0,0,1.68,4.29,4.93,4.93,0,0,0,.94,1.43,5.5,5.5,0,0,0,1,.79C14.73,28.29,15.1,28.5,15.07,28.55Z"/><path class="cls-2" d="M7.44,7.89c-.09-.07.13-.44.23-1.1a17.11,17.11,0,0,0,0-2.7c0-.58,0-1.13,0-1.63l0-.71A1.22,1.22,0,0,1,7.93,1L8.34.55l.06.59c.06.6,0,1-.05,1s-.26-.32-.47-1l.47.12a4.3,4.3,0,0,0,0,1.11c0,.5.06,1.05.07,1.63A8.13,8.13,0,0,1,8.2,6.93C7.93,7.67,7.5,8,7.44,7.89Z"/><path class="cls-2" d="M21.1,43s-.41.1-1.13-.07a6.82,6.82,0,0,1-2.73-1.48,25.56,25.56,0,0,1-3-3.39l-3.43-4.31a11.92,11.92,0,0,1-1.61-2.47,8.74,8.74,0,0,1-.63-2.69c-.12-1.73-.07-3.24-.1-4.52,0-2.55-.32-4.1-.21-4.13A11.07,11.07,0,0,1,9,24.05c.33,2.5-.42,6.35,2.4,9.21l3.39,4.36A30.58,30.58,0,0,0,17.61,41,8.27,8.27,0,0,0,21.1,43Z"/><path class="cls-2" d="M20.85,43s-.08.11-.27.25l0-.19c.6,0,1.92,0,3.66,0a18.17,18.17,0,0,0,6.16-.92,11.51,11.51,0,0,0,5.49-4.38A12.08,12.08,0,0,1,37.25,36c.38-.38.65-.53.68-.49s-.7.91-1.62,2.56a11,11,0,0,1-5.68,4.81,16,16,0,0,1-6.44.8,25.13,25.13,0,0,1-3.66-.43l-.36-.08.32-.11C20.71,43,20.83,42.93,20.85,43Z"/><path class="cls-2" d="M43.83,48.65c-.14,0-.12-1.71-.87-4.31A18.9,18.9,0,0,0,41.11,40a53.93,53.93,0,0,1-3-5.15,10.17,10.17,0,0,1-.83-3.06,10.8,10.8,0,0,1,.19-2.93,15,15,0,0,1,1.55-4.64A11.25,11.25,0,0,0,40,22.63a3.36,3.36,0,0,0,.19-1.3c0-.74-.25-1.12-.19-1.15s.34.32.49,1.12a3.25,3.25,0,0,1-.08,1.46,9.41,9.41,0,0,1-.81,1.71A16,16,0,0,0,38.23,29a10.33,10.33,0,0,0-.14,2.73,9.57,9.57,0,0,0,.79,2.81c.82,1.87,2,3.5,2.86,5.12A18,18,0,0,1,43.5,44.2a15.91,15.91,0,0,1,.43,3.25A3,3,0,0,1,43.83,48.65Z"/><path class="cls-2" d="M44.89,37.92s-.32-.16-.69-.66a4.79,4.79,0,0,1-.87-2.47A8.21,8.21,0,0,1,44.25,31L46,26.79a7.49,7.49,0,0,0,.82-3c0-1-.24-2-.22-3a5.67,5.67,0,0,1,1.72-4l.08-.08.1,0a.35.35,0,0,1,.21.42.39.39,0,0,1-.24.3.3.3,0,0,1-.33-.12.34.34,0,0,1,0-.25.3.3,0,0,1,.2-.23c.07,0,.1,0,.1,0s-.13.05-.12.22.07.13.09.1,0-.21,0-.14l.18,0a5.78,5.78,0,0,0-1.31,3.78c0,.86.28,1.83.31,2.95a8,8,0,0,1-.85,3.36l-1.85,4.22a8.39,8.39,0,0,0-1,3.45,5.27,5.27,0,0,0,.58,2.33C44.73,37.62,44.94,37.88,44.89,37.92Z"/><path class="cls-2" d="M43,39.62s-.09-.12,0-.3a1,1,0,0,1,.61-.5,10.54,10.54,0,0,1,2.2-.26,17.28,17.28,0,0,1,2.17,0,1.67,1.67,0,0,1,.71.18c.16.1.2.2.17.24s-.33,0-.85.14a19.68,19.68,0,0,1-2.16.22c-.82,0-1.66,0-2.11,0S43.1,39.64,43,39.62Z"/><path class="cls-2" d="M15.36,49.11c-.12,0-.13-.7-.6-1.71-.23-.51-.55-1.09-.9-1.78a7.68,7.68,0,0,1-.77-2.44A22.52,22.52,0,0,1,13,39.47a22.76,22.76,0,0,1,.17-2.29v0h0a.17.17,0,0,1,.26,0,.17.17,0,0,1,.08.18.14.14,0,0,1-.15.11.21.21,0,0,1-.1-.07c-.06-.12.06-.17.06-.13s0,0,.05,0,0,0,0,0,0,0,0,0-.06,0-.05,0,0-.08,0,0l.09,0a20.67,20.67,0,0,1,.2,2.27c.08,1,0,2.3.21,3.61.18,1.65,1.08,3,1.41,4.14S15.46,49.13,15.36,49.11Z"/><path class="cls-2" d="M13,49.11c-.09-.06,0-.4,0-1s-.05-1.5-.06-2.49a23.84,23.84,0,0,1,.13-2.51l.06-.43c0-.12,0-.16,0-.22s-.15-.08-.13-.11.13-.23.37-.07a.56.56,0,0,1,.18.4l.06.43a22.59,22.59,0,0,1,.1,2.52,17.45,17.45,0,0,1-.17,2.53C13.45,48.8,13.12,49.19,13,49.11Z"/><path class="cls-2" d="M31.8,45.61c-.23-.11.44-1.36.92-2.87.15-.55.26-1.19.41-1.66a1.42,1.42,0,0,1,.85-.93l.12.27c-.16,0-.26,0-.28-.07s0-.13.19-.22l.89-.61-.77.89a1.88,1.88,0,0,0-.38.85A9.84,9.84,0,0,1,33.47,43a6.82,6.82,0,0,1-1,2C32.15,45.42,31.89,45.67,31.8,45.61Z"/><path class="cls-2" d="M39.82,49.63c-.21,0-.85-2.49-.63-5.67a24.27,24.27,0,0,1,.47-3.28c.18-.9.25-1.59.3-2l.26,0c-.13.19-.22.28-.26.26s0-.15,0-.37l.11-.49.14.54a6.87,6.87,0,0,1,.06,2.09c-.08.94-.25,2-.32,3.24C39.76,47.08,40,49.59,39.82,49.63Z"/><path class="cls-2" d="M39.76,44.74c-.06-.09.07-.29.16-.64s.2-.91.38-1.49a8.45,8.45,0,0,1,.56-1.47c0-.09.09-.17.13-.25s.12-.2.2-.19.06,0,.06.07,0,.06,0,.08,0,0,0,0,0,0,.08,0,.08,0,0,0,0,0,0,.11,0,.18,0,.28A9.91,9.91,0,0,1,41,42.84a5.2,5.2,0,0,1-.63,1.51C40.14,44.74,39.81,44.83,39.76,44.74Z"/><path class="cls-2" d="M35.81,49.6c-.18-.13.14-.87.61-1.71a8,8,0,0,1,.68-1,2.21,2.21,0,0,1,.23-.25c.05-.05.07-.11.12-.13s.14,0,.19.15a1.09,1.09,0,0,1,0,.47,5,5,0,0,1-.5,1.19C36.61,49.16,36,49.72,35.81,49.6Z"/><path class="cls-2" d="M10,48.06c-.2.09-.64-.41-1-1.12a4.31,4.31,0,0,1-.34-1,1.41,1.41,0,0,1,0-.18s0,0,0-.07.08-.07.07-.08,0,0,0,0,0,0,0,0-.07,0-.1,0a.17.17,0,0,1-.06-.1c0-.07.13-.18.18-.16s.21.13.25.15l.13.14a4,4,0,0,1,.55.86C10.11,47.31,10.23,48,10,48.06Z"/><path class="cls-2" d="M7.66,48.46c-.19.11-.52-.1-.74-.45s-.25-.74-.08-.87.51.08.75.46S7.85,48.36,7.66,48.46Z"/><path class="cls-2" d="M44.92,26.46a17.72,17.72,0,0,0,.06-1.9c0-.58-.15-1.29-.14-2.13a20.77,20.77,0,0,1,.31-2.61,10.89,10.89,0,0,0,.18-2.47,5.09,5.09,0,0,0-.53-1.89c-.52-1-1.26-1.29-1.2-1.41s.92,0,1.68,1.12a4.92,4.92,0,0,1,.76,2.1,9,9,0,0,1-.12,2.67c-.14.92-.3,1.76-.36,2.52s0,1.47,0,2.09C45.51,25.82,45,26.53,44.92,26.46Z"/><path class="cls-2" d="M43,23.51c-.17-.13.1-.76.79-1.16a2.31,2.31,0,0,1,.73-.28.77.77,0,0,1,.42.07.38.38,0,0,1,.23.38l-.19.61-.13-.46a.27.27,0,0,1,0-.24c0-.05.14-.05.25,0l-.32.15c.06,0,0,0,0,.1s0,0-.1.07l-.48.29C43.62,23.34,43.16,23.64,43,23.51Z"/><path class="cls-2" d="M1.82,8.58c-.1,0,0-.49.19-1.18a16,16,0,0,0,.6-2.65c.1-1,0-2,.11-2.8.08-.41.16-.6.11-.7s-.15-.14-.17-.19.14-.2.39,0a.65.65,0,0,1,.22.45c0,.19,0,.33,0,.5a24.24,24.24,0,0,1,.11,2.84A8.16,8.16,0,0,1,2.53,7.6C2.19,8.25,1.92,8.62,1.82,8.58Z"/><path class="cls-2" d="M9.9,19.88s0,0,0,.06a.19.19,0,0,1-.15.13,1.65,1.65,0,0,1-.59,0,6.49,6.49,0,0,1-2-.63,9.9,9.9,0,0,1-1.3-.69,2.2,2.2,0,0,1-.61-.68l-.42-.74A11.59,11.59,0,0,1,4,15.67a8.36,8.36,0,0,1-.2-2l-.07-1.93a3.52,3.52,0,0,1,.42-1.91,4.3,4.3,0,0,1,1-1.41A2.74,2.74,0,0,1,6.7,7.93a10.06,10.06,0,0,1,2.07-.11c.5,0,.76.06.76.12s-.27.11-.74.18-1.15.18-2,.36a2.29,2.29,0,0,0-1.15.43,3.72,3.72,0,0,0-.82,1.23,2.72,2.72,0,0,0-.3,1.56l.08,1.93a8.81,8.81,0,0,0,.15,1.81A14.74,14.74,0,0,0,5.51,17a4.15,4.15,0,0,0,.78,1.25c.35.25.81.49,1.17.71a9.43,9.43,0,0,0,1.81.83l.51.14C9.88,19.92,9.88,19.91,9.9,19.88Z"/><path class="cls-2" d="M31.39,20.83a3,3,0,0,1-1.15.1,5,5,0,0,1-4.48-2.72,16.76,16.76,0,0,1-.87-2.35,5.73,5.73,0,0,0-1.15-2.25,2.26,2.26,0,0,0-1-.64,1.54,1.54,0,0,0-1.12.15c-.49.3-.72,1.19-1,1.89a18.41,18.41,0,0,1-.9,2.15A6,6,0,0,1,16.61,20a8.73,8.73,0,0,1-3.17.65c-.44,0-.83,0-1.17,0l-.46,0c-.15,0-.35-.09-.38-.23h0c0-.1.2,0,.26.05s-.06.07-.1.06-.09-.13-.08-.14,0,.05.13,0a.09.09,0,0,0,.09-.11c0-.06-.11-.09-.14,0h0c.05.15.36.06.69.07s.71,0,1.13-.08a9,9,0,0,0,2.94-.78A5.42,5.42,0,0,0,19,16.82a19.16,19.16,0,0,0,.84-2.08c.14-.38.28-.76.45-1.14a2.43,2.43,0,0,1,.87-1.14,2.26,2.26,0,0,1,1.73-.24,2.9,2.9,0,0,1,1.39.87,6.46,6.46,0,0,1,1.28,2.55,16.44,16.44,0,0,0,.76,2.28,4.62,4.62,0,0,0,1.22,1.59,5,5,0,0,0,2.71,1.11A3.74,3.74,0,0,1,31.39,20.83Z"/><path class="cls-2" d="M43.17,13.59a6,6,0,0,1-.76,2.51,9.48,9.48,0,0,1-1.6,2.41,7.15,7.15,0,0,1-3,2,14.57,14.57,0,0,1-3.46.64l-1.52.12a9.28,9.28,0,0,1-1.34-.07A4.8,4.8,0,0,1,29,20.39c0-.11,1,.18,2.56.23a15.71,15.71,0,0,0,2.74-.21,17.54,17.54,0,0,0,3.28-.67,8.24,8.24,0,0,0,4.36-3.9A15.12,15.12,0,0,1,43.17,13.59Z"/><path class="cls-2" d="M39.41,19.24s.08-.11.21,0a1,1,0,0,1,.29.29,3.86,3.86,0,0,1,.65,2.12c0,.15-.05.15-.05.21s-.09.15-.08.18,0,.08-.07.08-.3-.23-.34-.36a6.26,6.26,0,0,1-.38-1,8.57,8.57,0,0,1-.24-1C39.35,19.38,39.44,19.37,39.41,19.24Z"/><path class="cls-2" d="M42.57,14.8c-.06,0,.19-.48.42-1.34a4.33,4.33,0,0,0,.11-1.57,3,3,0,0,0-1-1.76A4.81,4.81,0,0,0,39.93,9a15.87,15.87,0,0,0-3-.33c-2.14-.09-4.5,0-7,.08A118.92,118.92,0,0,1,17.2,8.6c-1.63-.12-2.95-.25-3.85-.37A4.79,4.79,0,0,1,12,8a45.53,45.53,0,0,1,5.28.08C20.48,8.14,25,8.19,30,8c2.48-.09,4.87-.15,7,0a16.8,16.8,0,0,1,3.1.42,5.16,5.16,0,0,1,2.44,1.35,3.35,3.35,0,0,1,1,2.1,4.09,4.09,0,0,1-.25,1.71A3.05,3.05,0,0,1,42.57,14.8Z"/><path class="cls-2" d="M46.25,12.58c-.07.08-.33,0-.69-.23-.18-.11-.38-.25-.6-.41l-.34-.25-.4-.22a16.12,16.12,0,0,1-1.57-1.05l.2-.41.16.15-.14.29c-.1-.11-.14-.19-.11-.24s.12-.06.26,0l-.14.28-.22,0,.2-.4a6.89,6.89,0,0,1,1.78.79l.42.25a3.18,3.18,0,0,1,.33.3c.21.21.39.4.53.57C46.2,12.26,46.33,12.51,46.25,12.58Z"/><path class="cls-2" d="M45.3,14.81c-.11.18-.73,0-1.33-.46a2.41,2.41,0,0,1-.8-1l-.06-.2,0,0a.29.29,0,0,1,.16-.05s.13.05.12.09-.07.11-.07.07h0a.37.37,0,0,0,0,.11,0,0,0,0,0,.06,0v-.23a3,3,0,0,1,1.06.59C45,14.17,45.42,14.62,45.3,14.81Z"/><path class="cls-2" d="M44.81,15s.09,0,.13.11L44.77,15l.38-.49a3.64,3.64,0,0,0,.53-.77,1.56,1.56,0,0,0,0-1c0-.25-.15-.26-.15-.31s0-.17.18-.2.38.12.48.29a2.77,2.77,0,0,1,.3.6,1.37,1.37,0,0,1-.06.95,2.19,2.19,0,0,1-.82.93,1.16,1.16,0,0,1-.73.27l-.22,0,0-.08A.17.17,0,0,1,44.81,15Z"/><path class="cls-3" d="M8.88,8.61"/><path class="cls-2" d="M10.12,18.81A4.07,4.07,0,0,1,8,18.15,5.77,5.77,0,0,1,6,16.52a5.77,5.77,0,0,1-1-2.91,5.66,5.66,0,0,1,.38-3.09,3.59,3.59,0,0,1,2-1.62c1.41-.43,2.3-.13,2.28-.05s-.89.06-2.08.57A3.21,3.21,0,0,0,6,10.85a5.48,5.48,0,0,0-.24,2.68,5.38,5.38,0,0,0,.86,2.58,5.93,5.93,0,0,0,1.62,1.56C9.35,18.41,10.16,18.69,10.12,18.81Z"/><path class="cls-2" d="M36.93,19.24s.35-.27,1-.68a7.82,7.82,0,0,0,2.46-2.09A5.17,5.17,0,0,0,41.19,12a3.77,3.77,0,0,0-.6-1.16,1.42,1.42,0,0,0-1-.61c-1-.15-2-.3-3.1-.38a23.08,23.08,0,0,0-3.1-.06,21.06,21.06,0,0,1-3,0,20.67,20.67,0,0,0-2.6,0,2.89,2.89,0,0,0-1.93.7,3.39,3.39,0,0,0-.72,1.6,5.22,5.22,0,0,0-.08,1.38c.06.77.22,1.18.16,1.2s-.3-.36-.46-1.16A4.74,4.74,0,0,1,24.73,12a3.73,3.73,0,0,1,.74-1.89,3.27,3.27,0,0,1,2.27-1,18.5,18.5,0,0,1,2.7-.06,22,22,0,0,0,2.91,0,21.48,21.48,0,0,1,3.2,0c1.09.09,2.14.24,3.16.41a2.29,2.29,0,0,1,.85.3,2.4,2.4,0,0,1,.62.61,4.38,4.38,0,0,1,.7,1.4,5.64,5.64,0,0,1-1,5,7.18,7.18,0,0,1-2.76,2A3.48,3.48,0,0,1,36.93,19.24Z"/><path class="cls-2" d="M37.06,19.17a1.43,1.43,0,0,1-.3.26,1.65,1.65,0,0,1,.26-.29,1.93,1.93,0,0,1,.3-.26A1.65,1.65,0,0,1,37.06,19.17Z"/><path class="cls-2" d="M19.31,23.1c0,.08-.49,0-.93-.58A2.71,2.71,0,0,1,18,19.89a5.31,5.31,0,0,1,1.67-1.95c.25-.2.46-.35.61-.45l.11,0a.18.18,0,0,1,.2,0c.08.23-.15.11-.07.1s0,0,0,0,0,0,0,0,0,.09,0,.09l-.05.11a5.14,5.14,0,0,1-.43.61,9,9,0,0,0-1.33,1.85,2.59,2.59,0,0,0,.11,2.05C19.08,22.74,19.37,23,19.31,23.1Z"/><path class="cls-2" d="M26.05,23.27s0-.17.16-.33a4.93,4.93,0,0,1,.69-.52,1.43,1.43,0,0,0,.06-2c-.57-.79-1.4-1.44-1.8-2.11s-.36-1.23-.26-1.22.22.41.69.88a19.59,19.59,0,0,1,2,2,2.39,2.39,0,0,1,.45,1.73,1.63,1.63,0,0,1-.87,1.22c-.37.17-.64.22-.81.29S26.09,23.3,26.05,23.27Z"/><path class="cls-2" d="M22.19,22s-1-1.9-2.09-1.08.2,1.22.2,1.22A1.85,1.85,0,0,1,22.19,22Z"/><path class="cls-2" d="M23.59,22.38l0-.13c-.07-.44-.23-1.9,1.07-1.63,1.54.31,1.5,1.19,1.5,1.19s-.27,1.28-1.21.07S23.59,22.38,23.59,22.38Z"/><path class="cls-2" d="M17.7,32.29s0,0,0,0a.11.11,0,0,1,0,.13c-.08.1-.19,0-.22-.06a.75.75,0,0,1,0-.2c0-.27,0-.67,0-1.15a7.63,7.63,0,0,1,.91-3.72,3.82,3.82,0,0,1,3.27-2,4.61,4.61,0,0,1,1.14.26c.25.09.39.13.39.17s-.16.06-.43,0a7.63,7.63,0,0,0-1.11-.09,3.69,3.69,0,0,0-2.82,1.87,9,9,0,0,0-1,3.48l-.14,1.12c0,.16,0,.17,0,.2S17.73,32.29,17.7,32.29Z"/><path class="cls-2" d="M30.51,30.62c-.13.09-1.41-1.75-3.4-3.62-.77-.72-1.48-1.37-2.23-1.3a8.66,8.66,0,0,1-1.8.14l.06-.18c.17.15.26.24.24.27s-.14,0-.34-.1l-.39-.18h.44c.36,0,.9-.25,1.77-.38a2.16,2.16,0,0,1,1.4.36,8.64,8.64,0,0,1,1.2,1A11.66,11.66,0,0,1,30.51,30.62Z"/><path class="cls-2" d="M30.22,30.39a15,15,0,0,1-.58,2.74,4.47,4.47,0,0,1-.55,1.36A8.4,8.4,0,0,1,28,35.75a6.49,6.49,0,0,1-1.43,1.17,6.66,6.66,0,0,1-1.89.62l-1,.18a4.17,4.17,0,0,1-1,0A5.08,5.08,0,0,1,20.94,37a6.58,6.58,0,0,1-2.18-2.19A10.16,10.16,0,0,1,17.85,33a2.2,2.2,0,0,1-.21-.73c.09,0,.47,1,1.43,2.37a6.55,6.55,0,0,0,2.11,2,4.77,4.77,0,0,0,1.59.55,3.78,3.78,0,0,0,.89,0l.92-.17a6.42,6.42,0,0,0,1.75-.56,6,6,0,0,0,1.34-1.06,8.52,8.52,0,0,0,1.06-1.16A4.55,4.55,0,0,0,29.28,33,15.16,15.16,0,0,1,30.22,30.39Z"/><path class="cls-2" d="M29.54,31.09a9.75,9.75,0,0,1-1.78-1.27,9.31,9.31,0,0,0-4.7-1.95,3.83,3.83,0,0,0-2.16.44,5.8,5.8,0,0,0-1.6,1.14,3.32,3.32,0,0,0-1,2.3v.6l-.17-.56c-.08-.27,0-.4.05-.39s0,.14.1.32l-.15,0A3.07,3.07,0,0,1,19,29.17a5.7,5.7,0,0,1,1.69-1.3,4.18,4.18,0,0,1,2.43-.52A8.81,8.81,0,0,1,28,29.53,8.36,8.36,0,0,1,29.54,31.09Z"/><path class="cls-2" d="M29.43,30.83a5.09,5.09,0,0,1-1,1.83A6.3,6.3,0,0,1,24,35.12a4.64,4.64,0,0,1-2.71-.84A20.18,20.18,0,0,1,19.47,33c-1-.84-1.33-1.65-1.26-1.67a10.64,10.64,0,0,0,1.48,1.37c.51.36,1.16.75,1.88,1.17a4.2,4.2,0,0,0,2.44.73,6.44,6.44,0,0,0,4.14-2.16A20.37,20.37,0,0,1,29.43,30.83Z"/><path class="cls-2" d="M28.83,30.82s-.16.08-.45.13a3.71,3.71,0,0,1-1.28.1,6.4,6.4,0,0,1-1.59-1,5,5,0,0,0-1.91-.89,2.4,2.4,0,0,0-1.93.41,16.34,16.34,0,0,1-1.46,1.12,7.33,7.33,0,0,0-1.06.59c-.22.16-.31.29-.35.28s0-.19.21-.43a5.14,5.14,0,0,1,1-.76c.42-.27.81-.73,1.38-1.19a2.77,2.77,0,0,1,2.3-.53c1.72.31,2.72,1.71,3.51,2.06a6.25,6.25,0,0,0,1.17.06C28.66,30.76,28.82,30.78,28.83,30.82Z"/><path class="cls-2" d="M21.24,29.15c.05,0,0,.19-.15.33a.76.76,0,0,1-.35.15.64.64,0,0,1-.55-.16l0,0c-.37-.68-.09-1.14,0-1.12s.21.49.38.8h0s.25.07.37,0S21.18,29.1,21.24,29.15Z"/><path class="cls-2" d="M24.61,29.06c-.09,0-.06-.22.15-.28s.18-.05.19-.05a2.13,2.13,0,0,0,0-.24.34.34,0,0,1,.08-.23c.05,0,.16,0,.26.1a.57.57,0,0,1,.06.65.4.4,0,0,1-.4.22c-.17,0-.19-.06-.21-.08A.24.24,0,0,0,24.61,29.06Z"/><path class="cls-2" d="M27.31,33.49c0,.07-.38,0-.95.09s-1.41.14-2.32.17a19.6,19.6,0,0,1-3,0l0-.19c.1.09.21.08.21.12s-.08.13-.3.06l-.35-.1.39-.09a20.67,20.67,0,0,1,3-.29c.91,0,1.72,0,2.33,0S27.34,33.42,27.31,33.49Z"/><path class="cls-4" d="M11.44,19.19s6.77.9,7.71-3.44S18.8,10,17.36,9.55a39.71,39.71,0,0,0-5.23-.71Z"/><path class="cls-2" d="M37.71,18.72s0,0,0,0,0,.12-.07.14a3.13,3.13,0,0,1-.37.28,5.45,5.45,0,0,1-1.59.66,11.86,11.86,0,0,1-2.51.31A23.44,23.44,0,0,1,30.13,20a7.74,7.74,0,0,1-1.6-.36,3.33,3.33,0,0,1-1.32-.86A10.22,10.22,0,0,1,25.8,16.7,5.9,5.9,0,0,1,25,14.51c.08,0,.39.8,1.11,2a10.91,10.91,0,0,0,1.43,2,4.21,4.21,0,0,0,2.63,1,29,29,0,0,0,3,.12,14.52,14.52,0,0,0,2.45-.19A6.46,6.46,0,0,0,37.22,19l.42-.19C37.71,18.75,37.73,18.72,37.71,18.72Z"/><path class="cls-5" d="M77.12-12.88"/><path class="cls-2" d="M49.59,4.94a12.53,12.53,0,0,1-2.11,0,16.39,16.39,0,0,0-4.93.71c-1.82.71-3.43,1.5-4.62,2-.2,0-.17.19,0,.22l.64.16c.36.09.55.16.54.2s-.21,0-.57,0l-.67-.07c-.14,0-.42-.13-.47-.34a.31.31,0,0,1,.08-.3,1,1,0,0,1,.29-.2,39.91,39.91,0,0,1,4.61-2.21,13.91,13.91,0,0,1,5.11-.58A6.54,6.54,0,0,1,49.59,4.94Z"/><path class="cls-2" d="M49.42,15.88s0-.07,0-.13l.15.15a2,2,0,0,1-.57.71c-.41.37-.81.58-.9.46s.16-.49.55-.84a2.08,2.08,0,0,1,.76-.48l.15.15C49.49,15.92,49.44,15.91,49.42,15.88Z"/><ellipse class="cls-6" cx="39.41" cy="7.22" rx="1.45" ry="0.43" transform="translate(0.18 15.37) rotate(-22.12)"/><path class="cls-2" d="M41.79,7.92s-.06,0-.12,0l.14,0a.75.75,0,0,0,.21.37,1.89,1.89,0,0,1,.52.75,3.75,3.75,0,0,0,.44.86c.18.23.2.47.12.48s-.16-.08-.38-.23a1.85,1.85,0,0,1-.65-.91,3.54,3.54,0,0,0-.4-.72.56.56,0,0,1,0-.64l.12-.12,0,.09C41.81,7.86,41.81,7.9,41.79,7.92Z"/><path class="cls-2" d="M41.71,8s-.15,0-.43,0A1.8,1.8,0,0,1,40.72,8a.54.54,0,0,1-.29-.81,1,1,0,0,1,.43-.24l.41-.16.89-.34,2.06-.74a8.56,8.56,0,0,1,2.19-.51,3.9,3.9,0,0,1,1.84.3c1,.45,1.26,1.17,1.21,1.17S49,6.11,48.12,5.8a5.68,5.68,0,0,0-3.73.36l-2.07.7-.91.3L41,7.29a.92.92,0,0,0-.28.1c-.07,0,0,.25.12.31a2,2,0,0,0,.46.12C41.59,7.87,41.74,8,41.71,8Z"/><path class="cls-2" d="M49.61,10.85a8.8,8.8,0,0,1-2.13.24l-1.07.06-.67,0-.62-.26a5.94,5.94,0,0,1-1.3-.58,1.41,1.41,0,0,1-.52-.7,1,1,0,0,1-.06-.47.74.74,0,0,1,0-.25v0h0L42,7.69l3.12-.1h2a6.48,6.48,0,0,1,1.8.1,6.94,6.94,0,0,1-1.78.23l-2,.14-1.18.06-.61,0h0l.47.41.2.17-.2.31a.43.43,0,0,0,0,.12.54.54,0,0,0,0,.25,1,1,0,0,0,.33.46,6.22,6.22,0,0,0,1.19.55l.55.26.54,0h1.07A8.68,8.68,0,0,1,49.61,10.85Z"/><path class="cls-2" d="M45.74,17.36c-.06,0,.13-.41.44-1a5.42,5.42,0,0,0,.76-2.29A5.79,5.79,0,0,0,46.07,11l.13-.09c0,.11,0,.17,0,.19s-.08,0-.17-.1l.13-.1a4.07,4.07,0,0,1,1.27,3.25,4.55,4.55,0,0,1-1,2.45C46.09,17.12,45.8,17.4,45.74,17.36Z"/><path class="cls-2" d="M49.41,14.34c-.08.1-1-.5-1.89-1.48a8.93,8.93,0,0,1-1-1.33,3.76,3.76,0,0,1-.25-.47.19.19,0,0,1,0-.15.09.09,0,0,1,.09-.06.06.06,0,0,1,.06,0s0,0,0,.08,0,0,0,0,0,0,0,0,0,0,0,0h.06a5,5,0,0,1,.37.35l1.13,1.21C48.78,13.46,49.51,14.22,49.41,14.34Z"/><ellipse class="cls-6" cx="42.39" cy="7.1" rx="1.72" ry="0.46" transform="translate(-0.33 11.87) rotate(-15.88)"/><ellipse class="cls-6" cx="44.66" cy="8.36" rx="0.34" ry="1.52" transform="translate(32.36 52.1) rotate(-84.89)"/><path class="cls-2" d="M41.47,5.3s0,.14.07.18l-.19,0A13.47,13.47,0,0,0,41.05,3a10.5,10.5,0,0,0-.65-1.85,2.16,2.16,0,0,0-.26-.5S40.05.61,40,.55s.07,0,.06-.05,0-.06,0,0,.08,0,.17,0a1.27,1.27,0,0,1,.47.48,5.75,5.75,0,0,1,.83,1.92,5.41,5.41,0,0,1,0,2.66l-.1.29-.1-.24C41.25,5.33,41.47,5.26,41.47,5.3Z"/><path class="cls-2" d="M47.83,4.61s.06.06.09.16h-.18a19.93,19.93,0,0,0-.42-2.16,13.14,13.14,0,0,0-.76-1.47,2.17,2.17,0,0,1-.2-.51s0-.19,0-.2.07,0,.09,0,0,0,0,0,0,0,0,0,0,0,.06.06l.33.4a5.33,5.33,0,0,1,.94,1.49,4.44,4.44,0,0,1,.11,2.34h-.18Q47.79,4.61,47.83,4.61Z"/><path class="cls-2" d="M4.1,13.39c.22,0,.57,1.18,1,3.13A12.81,12.81,0,0,0,5.48,18a5.28,5.28,0,0,0,.33.73A2.67,2.67,0,0,0,6,19a1.31,1.31,0,0,0,.23.18,1.89,1.89,0,0,1,.57.59,1.62,1.62,0,0,1,.21.87,2,2,0,0,1-.74,1.48,3.28,3.28,0,0,1-2.77.59,3.65,3.65,0,0,1-2-1.22,3.86,3.86,0,0,1-.8-2.05,7.47,7.47,0,0,1,.5-3.41,6.69,6.69,0,0,1,1.42-2.18,6.08,6.08,0,0,1,.71-.58l.33-.2A.66.66,0,0,1,3.88,13c.09,0,.28.08.29.2l0,.32L4,13.5c-.22-.05-.33-.11-.34-.18s.12-.13.33-.2l-.09.23c.05,0,0,0,0,.08s0,.05,0,.09a1.62,1.62,0,0,1-.17.23c-.15.19-.31.41-.48.67a7.13,7.13,0,0,0-.91,2C1.91,18,1.73,20.82,3.83,21.2A1.84,1.84,0,0,0,5.3,21a.5.5,0,0,0,.22-.34c0-.05,0-.1,0-.12s0,0-.13-.12a2.21,2.21,0,0,1-.49-.48,3.42,3.42,0,0,1-.31-.53,8,8,0,0,1-.34-1A9.84,9.84,0,0,1,4,16.68C3.85,14.66,3.89,13.42,4.1,13.39Z"/><path class="cls-2" d="M1.82,28.33A3.83,3.83,0,0,1,2.38,27a12.75,12.75,0,0,1,2-2.89c.94-1.05,2.22-1.55,2.3-2.37a.88.88,0,0,0-.22-.83c-.16-.15-.3-.12-.31-.16s.15-.15.42,0A1.05,1.05,0,0,1,7,21.78a2.1,2.1,0,0,1-.88,1.42,13.37,13.37,0,0,0-1.4,1.25,22.15,22.15,0,0,0-2.06,2.73C2.21,27.92,1.88,28.37,1.82,28.33Z"/><path class="cls-2" d="M.93,23.65c0-.08.35-.15.91-.21a7.67,7.67,0,0,0,2.09-.38,2.68,2.68,0,0,0,.89-.67,5,5,0,0,0,.65-.69,1.86,1.86,0,0,0,.28-.54c0-.22.21-.23.22-.17s0,.05,0,.19a1.25,1.25,0,0,1-.17.71,3.24,3.24,0,0,1-.62.84,2.76,2.76,0,0,1-1,.81,5.3,5.3,0,0,1-2.28.26C1.28,23.77.93,23.72.93,23.65Z"/><path class="cls-2" d="M11.39,34.16s0,.28-.28.7a3.45,3.45,0,0,1-1.53,1.38,2.89,2.89,0,0,1-1.46.23,2.58,2.58,0,0,1-1.52-.78,6.91,6.91,0,0,1-1.08-1.46A5.73,5.73,0,0,1,5,33.39a6.57,6.57,0,0,1-.28-1,16.47,16.47,0,0,1,0-6.67,7.71,7.71,0,0,1,.89-2.62c.08,0-.27,1-.53,2.68a18.5,18.5,0,0,0,.15,6.5,6,6,0,0,0,.26.88A5,5,0,0,0,6,34a7.56,7.56,0,0,0,1,1.38,2.25,2.25,0,0,0,2.5.54,3.57,3.57,0,0,0,1.5-1.16C11.23,34.37,11.36,34.14,11.39,34.16Z"/><path class="cls-2" d="M12.17,34.89a1.72,1.72,0,0,1-.25.75,4.66,4.66,0,0,1-1.34,1.71,3.38,3.38,0,0,1-3.19.57,6,6,0,0,1-2.74-2.86,12.92,12.92,0,0,1-1.44-6.91A15.69,15.69,0,0,1,3.5,26c.12-.49.21-.76.25-.75s-.15,1.11-.17,2.89a13.82,13.82,0,0,0,1.53,6.65,5.73,5.73,0,0,0,2.46,2.66,3,3,0,0,0,2.79-.42,4.87,4.87,0,0,0,1.38-1.51C12,35.12,12.13,34.87,12.17,34.89Z"/><path class="cls-2" d="M8.49,23.85c-.1.08-.77-.41-1.26-1.35a3.25,3.25,0,0,1-.32-1.27c0-.29-.13-.45-.08-.51s.29.05.43.4.22.74.43,1.15C8.12,23.09,8.61,23.75,8.49,23.85Z"/><path class="cls-2" d="M6.7,24.9c-.12.07-.57-.58-.49-1.51a4.49,4.49,0,0,1,.3-1.06c.1-.24.15-.39.22-.4s.16.17.15.47-.12.67-.15,1C6.65,24.2,6.84,24.84,6.7,24.9Z"/><path class="cls-2" d="M5.75,25.78c-.14-.08.31-.76,1.17-1A4,4,0,0,1,8,24.61a.68.68,0,0,1,.39.08c.09.08.08.15.05.17a1.42,1.42,0,0,0-.37.11c-.25.1-.6.19-1,.31C6.34,25.48,5.87,25.86,5.75,25.78Z"/><path class="cls-2" d="M8.45,26.88a.28.28,0,0,1,.55,0,.26.26,0,0,1-.29.28A.26.26,0,0,1,8.45,26.88Z"/><path class="cls-2" d="M8.61,26.87a.93.93,0,0,1,.26,0s-.12,0-.26,0-.27,0-.27,0A1,1,0,0,1,8.61,26.87Z"/><path class="cls-2" d="M4.72,27.18s-.12-.09,0-.25A.43.43,0,0,1,5,26.77a.87.87,0,0,1,.36,0,1.41,1.41,0,0,0,.68,0,3.06,3.06,0,0,1,.48-.07h.29a.54.54,0,0,1,.4.24l0,.06c0,.07,0,0,.1,0a1.17,1.17,0,0,0,.33-.2,1.77,1.77,0,0,1,.79-.41.61.61,0,0,1,.61.26c.09.15,0,.24,0,.24s-.21-.25-.54-.14a1.87,1.87,0,0,0-.56.42,1.42,1.42,0,0,1-.47.31.71.71,0,0,1-.4,0,.43.43,0,0,1-.33-.29v0H6.52l-.45,0a1.43,1.43,0,0,1-.86-.13C4.84,26.92,4.77,27.15,4.72,27.18Z"/><path class="cls-2" d="M4.65,29.57c0-.07.28-.22.77-.4s1.26-.38,1.22-1a3.39,3.39,0,0,1,0-.63A1.24,1.24,0,0,1,7,26.93a2,2,0,0,1,.87-.53c.6-.17,1,.17.88.21s-.32-.08-.75.14a1.93,1.93,0,0,0-.64.49c-.19.24-.19.44-.16.91a1.13,1.13,0,0,1-.21.7,1.37,1.37,0,0,1-.5.41,3.3,3.3,0,0,1-.93.27C5,29.62,4.67,29.64,4.65,29.57Z"/><path class="cls-2" d="M5.18,30.29c.05.07,0,.2-.14.35l-.36.43.05-.63a4.19,4.19,0,0,1,.14-.64,1.45,1.45,0,0,1,.19-.37.47.47,0,0,1,.44-.21.3.3,0,0,1,.26.21c0,.09,0,.13-.06.13a.18.18,0,0,0-.2,0s-.06.12-.14.4a2.83,2.83,0,0,1-.25.55l-.3-.21C5,30.25,5.14,30.23,5.18,30.29Z"/><path class="cls-2" d="M3.42,31.67c0,.07-.38.18-.78-.22a4.38,4.38,0,0,1-.77-1.74,6.4,6.4,0,0,1-.06-1.05,1,1,0,0,1,.49-.84c.52-.27.86,0,.81.05s-.32,0-.61.26a.64.64,0,0,0-.21.55c0,.27.07.61.1.93a7,7,0,0,0,.54,1.6C3.14,31.55,3.42,31.6,3.42,31.67Z"/><path class="cls-2" d="M7.38,7.86c-.09-.07.14-.44.23-1.1a17.11,17.11,0,0,0,0-2.7c0-.58,0-1.13,0-1.63l0-.71A1.15,1.15,0,0,1,7.87,1L8.28.52l.06.59c.06.6.05,1,0,1S8,1.81,7.82,1.18l.47.12a4,4,0,0,0,0,1.11c0,.5.05,1,.07,1.63A8.35,8.35,0,0,1,8.14,6.9C7.88,7.64,7.45,7.94,7.38,7.86Z"/><path class="cls-2" d="M43,39.59c-.05,0-.09-.12,0-.3a1,1,0,0,1,.61-.5,10.45,10.45,0,0,1,2.2-.26,17.12,17.12,0,0,1,2.16,0,1.67,1.67,0,0,1,.71.18c.16.09.2.2.17.24s-.32,0-.85.14a19.42,19.42,0,0,1-2.16.22c-.82,0-1.65,0-2.11,0S43.05,39.61,43,39.59Z"/><path class="cls-2" d="M13,49.08c-.09-.06,0-.4-.05-1s0-1.5,0-2.49A24.2,24.2,0,0,1,13,43.05l.06-.43a.42.42,0,0,0,0-.22c-.05-.12-.15-.08-.13-.11s.14-.23.37-.07a.61.61,0,0,1,.19.4l.05.43a24.93,24.93,0,0,1,.11,2.52,16,16,0,0,1-.18,2.53C13.39,48.77,13.07,49.16,13,49.08Z"/><path class="cls-2" d="M31.74,45.58c-.22-.11.45-1.36.92-2.87.16-.55.27-1.19.41-1.66a1.49,1.49,0,0,1,.85-.94l.13.28c-.17,0-.27,0-.28-.07s0-.13.18-.22l.89-.61-.76.89a1.77,1.77,0,0,0-.39.85,9.86,9.86,0,0,1-.27,1.69,6.81,6.81,0,0,1-1,2C32.09,45.39,31.83,45.64,31.74,45.58Z"/><path class="cls-2" d="M39.71,44.71c-.07-.09.06-.29.15-.64s.2-.91.38-1.49a10.45,10.45,0,0,1,.56-1.47l.14-.25c0-.08.12-.2.2-.19s0,0,0,.07,0,.06,0,.08,0,0,0,0,0,0,.08.05.08,0,0,0,0,0,0,.11,0,.18,0,.28A9.91,9.91,0,0,1,41,42.81a5.19,5.19,0,0,1-.64,1.51C40.08,44.71,39.76,44.8,39.71,44.71Z"/><path class="cls-2" d="M35.56,49.9c-.19-.11.11-1,.65-1.9a7.06,7.06,0,0,1,.8-1.15l.26-.28c.06-.06.08-.12.13-.14s.14,0,.18.17a.94.94,0,0,1-.08.49,7,7,0,0,1-.6,1.28C36.34,49.34,35.74,50,35.56,49.9Z"/><path class="cls-2" d="M10,48c-.2.09-.63-.41-1-1.12a3.86,3.86,0,0,1-.34-1,1.68,1.68,0,0,1,0-.18s0,0,0-.07.08-.07.08-.08,0,0,0,0a.05.05,0,0,1,0,0s-.08,0-.1,0a.1.1,0,0,1-.06-.09c0-.07.12-.18.17-.16a.44.44,0,0,1,.26.15l.12.14a3.66,3.66,0,0,1,.55.86C10.05,47.28,10.17,47.93,10,48Z"/><path class="cls-2" d="M7.6,48.43c-.19.11-.52-.1-.74-.45s-.25-.75-.07-.87.51.08.74.46S7.79,48.33,7.6,48.43Z"/><path class="cls-2" d="M44.86,26.42a17.25,17.25,0,0,0,.06-1.89c0-.58-.15-1.29-.13-2.13a19,19,0,0,1,.3-2.61,10.34,10.34,0,0,0,.18-2.47,4.91,4.91,0,0,0-.52-1.89c-.52-1-1.26-1.29-1.2-1.41s.91,0,1.67,1.12a4.93,4.93,0,0,1,.77,2.1,9.7,9.7,0,0,1-.12,2.67c-.15.92-.31,1.76-.36,2.52s0,1.47,0,2.09C45.45,25.79,44.94,26.49,44.86,26.42Z"/><path class="cls-2" d="M42.93,23.48c-.17-.13.09-.76.79-1.17a2.49,2.49,0,0,1,.72-.27.8.8,0,0,1,.43.07.37.37,0,0,1,.22.38l-.19.61-.13-.46a.24.24,0,0,1,0-.24c.05,0,.13,0,.24,0l-.32.15c.07,0,0,0,0,.1s-.06,0-.1.06-.31.2-.49.3C43.56,23.31,43.1,23.61,42.93,23.48Z"/><path class="cls-2" d="M1.77,8.55c-.1,0,0-.49.19-1.18a15.11,15.11,0,0,0,.59-2.65c.1-1,0-2,.12-2.8.07-.41.16-.6.1-.7S2.63,1.08,2.6,1,2.74.83,3,1a.65.65,0,0,1,.22.45c0,.19,0,.33,0,.5A22.21,22.21,0,0,1,3.33,4.8a7.94,7.94,0,0,1-.86,2.77C2.13,8.22,1.87,8.59,1.77,8.55Z"/><path class="cls-2" d="M9.84,19.85s.05,0,.05.06a.19.19,0,0,1-.14.13,1.71,1.71,0,0,1-.6,0,6.37,6.37,0,0,1-2-.63,9.31,9.31,0,0,1-1.3-.69A2.08,2.08,0,0,1,5.24,18l-.42-.74A12.68,12.68,0,0,1,4,15.64a8.9,8.9,0,0,1-.2-2L3.69,11.7a3.52,3.52,0,0,1,.43-1.91,4.27,4.27,0,0,1,1-1.41A2.74,2.74,0,0,1,6.65,7.9a10,10,0,0,1,2.07-.11c.49,0,.76.06.76.12s-.27.11-.75.18-1.15.18-2,.36a2.36,2.36,0,0,0-1.15.43,3.88,3.88,0,0,0-.82,1.23,2.81,2.81,0,0,0-.3,1.56l.08,1.93a10.48,10.48,0,0,0,.15,1.81A14.74,14.74,0,0,0,5.45,17a4,4,0,0,0,.79,1.25c.34.25.8.49,1.16.71a9.71,9.71,0,0,0,1.81.83l.51.14C9.82,19.89,9.82,19.88,9.84,19.85Z"/><path class="cls-2" d="M31.33,20.8a3,3,0,0,1-1.15.1,5,5,0,0,1-3-1,4.89,4.89,0,0,1-1.45-1.73,14.58,14.58,0,0,1-.87-2.35,5.89,5.89,0,0,0-1.16-2.25,2.21,2.21,0,0,0-1-.64,1.54,1.54,0,0,0-1.12.15c-.49.3-.72,1.19-1,1.89a22.65,22.65,0,0,1-.9,2.15A6,6,0,0,1,16.55,20a8.64,8.64,0,0,1-3.16.65c-.45,0-.84,0-1.17,0l-.46,0c-.15,0-.36-.09-.38-.23h0c0-.1.2,0,.25.05s-.05.07-.09.06-.1-.13-.09-.14,0,.05.13,0a.09.09,0,0,0,.09-.11c0-.06-.11-.09-.13,0h0c0,.15.35.06.68.07s.71,0,1.14-.08a9.08,9.08,0,0,0,2.94-.78A5.51,5.51,0,0,0,19,16.79a21.45,21.45,0,0,0,.83-2.08c.14-.38.28-.76.45-1.14a2.43,2.43,0,0,1,.87-1.14,2.26,2.26,0,0,1,1.73-.24,3,3,0,0,1,1.39.86,6.3,6.3,0,0,1,1.28,2.56,15.17,15.17,0,0,0,.77,2.28,4.48,4.48,0,0,0,1.21,1.59,5,5,0,0,0,2.71,1.11C30.93,20.69,31.34,20.74,31.33,20.8Z"/><path class="cls-2" d="M43.11,13.56a5.83,5.83,0,0,1-.76,2.51,9.48,9.48,0,0,1-1.6,2.41,7.09,7.09,0,0,1-3,2,15.44,15.44,0,0,1-3.46.64l-1.52.11a9.51,9.51,0,0,1-1.34-.06,4.69,4.69,0,0,1-2.51-.78c0-.12,1,.18,2.55.23a15.71,15.71,0,0,0,2.74-.21,17.8,17.8,0,0,0,3.29-.67,8.25,8.25,0,0,0,4.35-3.9A16.32,16.32,0,0,1,43.11,13.56Z"/><path class="cls-2" d="M39.35,19.21c0-.05.09-.11.22-.05a1.33,1.33,0,0,1,.29.29,3.74,3.74,0,0,1,.64,2.12c0,.15,0,.15,0,.21s-.09.15-.08.18,0,.08-.08.08-.29-.23-.34-.36a7.54,7.54,0,0,1-.37-1,7.18,7.18,0,0,1-.25-1C39.3,19.35,39.38,19.34,39.35,19.21Z"/><path class="cls-2" d="M46.2,12.55c-.08.08-.34,0-.7-.23-.18-.11-.38-.25-.6-.41s-.21-.17-.34-.25l-.4-.22a16.12,16.12,0,0,1-1.57-1l.2-.41.17.15-.15.29c-.09-.11-.13-.19-.11-.24s.12-.06.26,0l-.14.29-.22,0,.2-.4a6.74,6.74,0,0,1,1.78.79L45,11a2.41,2.41,0,0,1,.33.3c.21.21.39.4.53.57C46.14,12.23,46.27,12.48,46.2,12.55Z"/><path class="cls-2" d="M44.76,14.94s.08,0,.12.11l-.17-.13.38-.49a3.69,3.69,0,0,0,.54-.77,1.57,1.57,0,0,0,0-1c0-.25-.15-.26-.15-.31a.2.2,0,0,1,.18-.2c.14-.06.39.12.48.29a2.08,2.08,0,0,1,.3.6,1.37,1.37,0,0,1,0,1,2.2,2.2,0,0,1-.83.93,1.16,1.16,0,0,1-.73.27l-.22-.05,0-.08C44.67,15,44.71,14.94,44.76,14.94Z"/><path class="cls-3" d="M8.83,8.58"/><path class="cls-2" d="M10.06,18.78a4,4,0,0,1-2.15-.66A5.89,5.89,0,0,1,6,16.49a5.86,5.86,0,0,1-1.05-2.91,5.76,5.76,0,0,1,.39-3.09,3.53,3.53,0,0,1,2-1.62c1.41-.43,2.29-.13,2.27,0s-.88.06-2.07.57A3.13,3.13,0,0,0,6,10.82a5.47,5.47,0,0,0-.25,2.68,5.49,5.49,0,0,0,.86,2.58,6.07,6.07,0,0,0,1.62,1.56C9.3,18.38,10.11,18.66,10.06,18.78Z"/><path class="cls-2" d="M36.87,19.21c0-.05.36-.27,1-.68a7.82,7.82,0,0,0,2.46-2.09A5.17,5.17,0,0,0,41.13,12a3.77,3.77,0,0,0-.6-1.16,1.4,1.4,0,0,0-1-.61c-1-.15-2-.3-3.09-.38a23.14,23.14,0,0,0-3.1-.06,21.06,21.06,0,0,1-3,0,20.83,20.83,0,0,0-2.61,0,2.91,2.91,0,0,0-1.93.7,3.47,3.47,0,0,0-.71,1.6A4.85,4.85,0,0,0,25,13.46c.06.77.22,1.18.16,1.2s-.3-.36-.46-1.16a4.79,4.79,0,0,1,0-1.5,3.74,3.74,0,0,1,.74-1.88,3.31,3.31,0,0,1,2.27-1,17.3,17.3,0,0,1,2.71-.06A21.82,21.82,0,0,0,33.29,9a21.46,21.46,0,0,1,3.2,0c1.09.09,2.14.24,3.16.41a2.23,2.23,0,0,1,.85.3,2.45,2.45,0,0,1,.63.61,4.35,4.35,0,0,1,.69,1.4,5.64,5.64,0,0,1-1,5,7.18,7.18,0,0,1-2.76,2A3.48,3.48,0,0,1,36.87,19.21Z"/><path class="cls-2" d="M37,19.14a1.27,1.27,0,0,1-.29.26,1.27,1.27,0,0,1,.26-.29,1.65,1.65,0,0,1,.29-.26A1.65,1.65,0,0,1,37,19.14Z"/><path class="cls-4" d="M11.38,19.16s6.77.9,7.72-3.44-.36-5.77-1.8-6.2a39.71,39.71,0,0,0-5.23-.71Z"/><path class="cls-2" d="M37.65,18.69s0-.05.05,0,0,.12-.06.14a2.67,2.67,0,0,1-.38.28,5.37,5.37,0,0,1-1.58.66,12,12,0,0,1-2.52.31A23.48,23.48,0,0,1,30.07,20a7.65,7.65,0,0,1-1.59-.36,3.19,3.19,0,0,1-1.32-.86,9.83,9.83,0,0,1-1.41-2.12A6.06,6.06,0,0,1,25,14.48c.08,0,.4.8,1.11,2a11,11,0,0,0,1.43,2,4.19,4.19,0,0,0,2.64,1,28.66,28.66,0,0,0,3,.12,14.35,14.35,0,0,0,2.45-.19,6.72,6.72,0,0,0,1.57-.48l.41-.19C37.66,18.72,37.67,18.69,37.65,18.69Z"/><path class="cls-2" d="M49.36,15.85a.13.13,0,0,1,0-.13l.15.15a2.07,2.07,0,0,1-.56.71c-.41.37-.82.58-.9.46s.16-.49.55-.84a2,2,0,0,1,.76-.48l.15.15C49.43,15.88,49.39,15.88,49.36,15.85Z"/><path class="cls-2" d="M41.73,7.89s-.06,0-.12,0l.15,0a.65.65,0,0,0,.2.37,1.93,1.93,0,0,1,.53.74,3,3,0,0,0,.44.87c.18.23.19.47.11.48s-.16-.08-.38-.23A1.85,1.85,0,0,1,42,9.17a3.54,3.54,0,0,0-.4-.72.6.6,0,0,1,0-.64l.12-.12,0,.09S41.75,7.87,41.73,7.89Z"/><path class="cls-2" d="M41.66,8s-.16,0-.44,0a1.83,1.83,0,0,1-.56-.07.54.54,0,0,1-.28-.81,1,1,0,0,1,.43-.24l.4-.16.89-.34,2.06-.74a8.65,8.65,0,0,1,2.19-.51,3.88,3.88,0,0,1,1.84.3c1,.45,1.26,1.17,1.22,1.17s-.42-.52-1.35-.83a5.68,5.68,0,0,0-3.73.36l-2.07.7-.91.3-.41.13a1.06,1.06,0,0,0-.28.1c-.07,0,0,.25.13.3a1.53,1.53,0,0,0,.45.13C41.54,7.84,41.68,8,41.66,8Z"/><path class="cls-2" d="M49.92,10.83a12.47,12.47,0,0,1-2.22.22l-1.13.06a2.42,2.42,0,0,1-1.35-.21,11,11,0,0,1-1.35-.58,1.43,1.43,0,0,1-.59-.67,1.29,1.29,0,0,1-.1-.48.93.93,0,0,1,.06-.36h0L41.91,7.66,45,7.57l2,0a7.24,7.24,0,0,1,1.79.09A6.53,6.53,0,0,1,47,7.88l-2,.14-1.18.06-.62,0h0l.68.58-.07.09c-.21.31-.14.26-.16.38a.66.66,0,0,0,.06.27,1,1,0,0,0,.39.45,11.35,11.35,0,0,0,1.26.57,2,2,0,0,0,1.15.22h1.13A7.6,7.6,0,0,1,49.92,10.83Z"/><path class="cls-2" d="M45.69,17.33c-.06,0,.13-.41.43-1a5.56,5.56,0,0,0,.77-2.29A5.74,5.74,0,0,0,46,11l.13-.09c0,.11.06.17,0,.19s-.08,0-.16-.1l.12-.1a4.1,4.1,0,0,1,1.28,3.25,4.63,4.63,0,0,1-1,2.45C46,17.09,45.74,17.37,45.69,17.33Z"/><path class="cls-2" d="M49.34,15.78c-.08,0,0-.37-.06-.89a3.37,3.37,0,0,0-1-1.75c-.58-.62-1.15-1.15-1.55-1.55a5,5,0,0,1-.47-.5.31.31,0,0,1-.06-.13c0-.05,0-.16.12-.12s.05.05,0,.09,0,0,0,0h0s0,0,0,0a.25.25,0,0,1,.11,0,6.53,6.53,0,0,1,.57.36,10.76,10.76,0,0,1,1.69,1.48,3.09,3.09,0,0,1,1,2.08C49.61,15.49,49.39,15.8,49.34,15.78Z"/><path class="cls-2" d="M4.05,13.36c.21,0,.56,1.18,1,3.13A11.17,11.17,0,0,0,5.43,18a5.28,5.28,0,0,0,.33.73A1.69,1.69,0,0,0,6,19a.82.82,0,0,0,.23.18,1.88,1.88,0,0,1,.56.59,1.62,1.62,0,0,1,.21.87,2,2,0,0,1-.74,1.48,3.26,3.26,0,0,1-2.77.59,3.59,3.59,0,0,1-2-1.22,3.7,3.7,0,0,1-.8-2.05A7.34,7.34,0,0,1,1.12,16a6.43,6.43,0,0,1,1.42-2.18,4.78,4.78,0,0,1,.71-.58l.32-.2A.66.66,0,0,1,3.82,13a.31.31,0,0,1,.3.2l0,.32-.22-.06c-.21-.05-.33-.11-.33-.18s.11-.13.32-.2l-.09.23c.06,0,0,0,0,.08s0,0,0,.09-.12.15-.18.23-.31.41-.48.67a7.41,7.41,0,0,0-.91,2c-.42,1.56-.6,4.37,1.5,4.75a1.81,1.81,0,0,0,1.46-.25.46.46,0,0,0,.22-.34.21.21,0,0,0,0-.12s0,0-.13-.12a2.44,2.44,0,0,1-.49-.48,3.29,3.29,0,0,1-.3-.53,5.62,5.62,0,0,1-.34-1,9,9,0,0,1-.27-1.71C3.79,14.63,3.83,13.39,4.05,13.36Z"/><path class="cls-2" d="M1.76,28.3A4.09,4.09,0,0,1,2.32,27a13.35,13.35,0,0,1,2-2.9c.94-1,2.22-1.54,2.3-2.36a.88.88,0,0,0-.22-.83c-.16-.15-.3-.12-.31-.16s.16-.15.43,0A1,1,0,0,1,7,21.75a2.1,2.1,0,0,1-.88,1.42,14.46,14.46,0,0,0-1.4,1.25,21,21,0,0,0-2.05,2.73C2.15,27.89,1.83,28.34,1.76,28.3Z"/><path class="cls-2" d="M.87,23.62c0-.08.35-.15.91-.21A8.08,8.08,0,0,0,3.87,23a2.82,2.82,0,0,0,.89-.67,4.47,4.47,0,0,0,.65-.69,1.64,1.64,0,0,0,.28-.54c0-.22.21-.23.23-.17a.25.25,0,0,0,0,.19,1.32,1.32,0,0,1-.16.71,3.77,3.77,0,0,1-.62.84,2.93,2.93,0,0,1-1,.81,5.32,5.32,0,0,1-2.28.26C1.22,23.74.87,23.69.87,23.62Z"/><path class="cls-2" d="M11.34,34.13a1.57,1.57,0,0,1-.29.69,3.4,3.4,0,0,1-1.53,1.39,2.87,2.87,0,0,1-1.46.23,2.58,2.58,0,0,1-1.52-.78A7.27,7.27,0,0,1,5.46,34.2,5.68,5.68,0,0,1,5,33.36a5.53,5.53,0,0,1-.28-1,16.32,16.32,0,0,1,0-6.67,8,8,0,0,1,.89-2.62c.08,0-.26,1-.52,2.68a18.26,18.26,0,0,0,.15,6.5,5,5,0,0,0,.25.88A7.37,7.37,0,0,0,5.9,34a7.56,7.56,0,0,0,1,1.38,2.25,2.25,0,0,0,2.5.54,3.5,3.5,0,0,0,1.5-1.16C11.17,34.34,11.3,34.11,11.34,34.13Z"/><path class="cls-2" d="M12.11,34.86a1.77,1.77,0,0,1-.24.75,4.6,4.6,0,0,1-1.35,1.71,3.38,3.38,0,0,1-3.19.57A6,6,0,0,1,4.59,35a13.68,13.68,0,0,1-1.14-9,2.41,2.41,0,0,1,.24-.75c.09,0-.14,1.11-.17,2.89a13.82,13.82,0,0,0,1.53,6.65,5.73,5.73,0,0,0,2.46,2.66A3,3,0,0,0,10.3,37a5.05,5.05,0,0,0,1.39-1.51C12,35.09,12.07,34.84,12.11,34.86Z"/><path class="cls-2" d="M8.43,23.82c-.09.08-.76-.41-1.26-1.35a3.44,3.44,0,0,1-.32-1.27c0-.29-.12-.45-.08-.51s.29,0,.44.4a9.3,9.3,0,0,0,.43,1.15C8.07,23.06,8.56,23.72,8.43,23.82Z"/><path class="cls-2" d="M6.65,24.87c-.12.07-.58-.58-.49-1.51a3.7,3.7,0,0,1,.3-1.06c.09-.24.14-.4.22-.4s.15.17.14.47-.11.67-.14,1C6.6,24.17,6.78,24.81,6.65,24.87Z"/><path class="cls-2" d="M5.7,25.75c-.14-.08.31-.76,1.17-1a4,4,0,0,1,1.06-.17.65.65,0,0,1,.38.08c.09.08.08.15,0,.17a1.4,1.4,0,0,0-.36.11c-.26.1-.61.19-1,.31C6.28,25.45,5.81,25.83,5.7,25.75Z"/><path class="cls-2" d="M8.4,26.85a.27.27,0,0,1,.28-.21.28.28,0,0,1,.26.24.27.27,0,1,1-.54,0Z"/><ellipse class="cls-2" cx="8.55" cy="26.86" rx="0.26" ry="0.02"/><path class="cls-2" d="M4.66,27.15s-.12-.09,0-.25a.38.38,0,0,1,.27-.16.87.87,0,0,1,.36,0,1.41,1.41,0,0,0,.68,0,3.06,3.06,0,0,1,.48-.07,1.4,1.4,0,0,1,.29,0,.51.51,0,0,1,.4.24l0,.06c0,.07,0,0,.1,0a1.07,1.07,0,0,0,.34-.19,1.67,1.67,0,0,1,.79-.41.61.61,0,0,1,.61.26c.08.15,0,.24,0,.24s-.2-.25-.54-.14a1.87,1.87,0,0,0-.56.42,1.48,1.48,0,0,1-.46.31.76.76,0,0,1-.41,0,.43.43,0,0,1-.33-.29v0H6.46l-.44,0a1.45,1.45,0,0,1-.87-.13C4.79,26.89,4.72,27.12,4.66,27.15Z"/><path class="cls-2" d="M4.59,29.54c0-.07.28-.22.77-.4s1.26-.38,1.22-1a3.39,3.39,0,0,1,0-.63,1.24,1.24,0,0,1,.31-.59,2,2,0,0,1,.88-.53c.6-.17,1,.17.88.21s-.33-.08-.76.14a2,2,0,0,0-.63.49c-.2.24-.19.44-.16.91a1.2,1.2,0,0,1-.21.7,1.56,1.56,0,0,1-.5.41,3.35,3.35,0,0,1-.94.27C4.94,29.59,4.61,29.61,4.59,29.54Z"/><path class="cls-2" d="M5.13,30.26c0,.07,0,.2-.15.35L4.63,31l0-.63a2.66,2.66,0,0,1,.14-.64A1.14,1.14,0,0,1,5,29.4a.48.48,0,0,1,.45-.21.31.31,0,0,1,.26.21c0,.09,0,.13-.06.12s-.15,0-.2,0a2.34,2.34,0,0,0-.14.4,2.83,2.83,0,0,1-.25.55l-.31-.21C4.94,30.22,5.08,30.2,5.13,30.26Z"/><path class="cls-2" d="M3.37,31.64c0,.07-.39.18-.79-.22a4.38,4.38,0,0,1-.76-1.74,6.46,6.46,0,0,1-.07-1.05,1,1,0,0,1,.49-.84c.53-.27.87,0,.82.05s-.32,0-.61.26a.67.67,0,0,0-.22.55c0,.27.07.6.1.93a7,7,0,0,0,.54,1.6C3.08,31.52,3.37,31.57,3.37,31.64Z"/><path class="cls-7" d="M26.25,8c-.17,0-.83-.53-.66-1a1.41,1.41,0,0,0,1.33.31A8,8,0,0,1,31.85,5c3-.2,6.71.6,7,1.36l.33.28L38.38,7a5.54,5.54,0,0,0-1.31-.68A6.85,6.85,0,0,0,32,6.68,6,6,0,0,1,26.25,8Z"/><path class="cls-8" d="M12.12,1.28"/><path class="cls-9" d="M0,0H9.39L9.18,7.76s-3-.08-3.91.55a5.64,5.64,0,0,0-1.5,2.36,22.89,22.89,0,0,0-.1,4.16s.5,3.26,3.05,4.38l1.35.62a24.71,24.71,0,0,1,.35,4.25,19.16,19.16,0,0,0,0,3s-.83.59-1.22.52c0,0,.61,1.58-1.66,1.95,0,0-.2,1.18-.52,1.11-.58-.11-.72,1.11-1,1.39-1.21,1.09-3.81.06-4,0Z"/><path class="cls-2" d="M42.51,14.77c-.06,0,.19-.48.42-1.34A3.92,3.92,0,0,0,43,11.86a3,3,0,0,0-.95-1.76A4.71,4.71,0,0,0,39.87,9a15.77,15.77,0,0,0-3-.33c-2.14-.09-4.5,0-7,.08a119.07,119.07,0,0,1-12.78-.17c-1.63-.12-2.94-.25-3.85-.37a4.9,4.9,0,0,1-1.4-.26A45.56,45.56,0,0,1,17.17,8c3.26.09,7.75.14,12.72-.06,2.49-.09,4.87-.15,7,0A16.81,16.81,0,0,1,40,8.36a5.24,5.24,0,0,1,2.45,1.35,3.33,3.33,0,0,1,1,2.1,3.94,3.94,0,0,1-.25,1.71A2.92,2.92,0,0,1,42.51,14.77Z"/><path class="cls-10" d="M40.15,38.48l-.44,11.33.51-.08,2-8.91Z"/><path class="cls-2" d="M40.17,49.86c-.22-.08.44-2,1-4.34.26-1.18.4-2.28.53-3.08a4,4,0,0,1,.23-1c.12-.25.29-.31.32-.26s0,.14,0,.34,0,.52,0,.93a14.62,14.62,0,0,1-.33,3.21C41.35,48.16,40.35,49.94,40.17,49.86Z"/><path class="cls-11" d="M17.86,32.46c.72,0,.91-.11.93-.2s-.11-.14-.24-.26a1.76,1.76,0,0,1-.43-.75,4.89,4.89,0,0,1,.33-1.12,3.07,3.07,0,0,1,1.18-1.61A14.16,14.16,0,0,1,22.3,27.4a13,13,0,0,1,3.88.9,12.57,12.57,0,0,1,1.7,1.15l1.6,1.61.68-.47a.52.52,0,0,0,.06-.2.68.68,0,0,0-.06-.37c-1.32-1.4-2.28-2.89-3.52-3.59a2.54,2.54,0,0,0-2.93-.66,7.7,7.7,0,0,0-1.65-.18,7.06,7.06,0,0,0-1,.06,3.38,3.38,0,0,0-2.34,1.87v0a3.81,3.81,0,0,0-.71,1.6,3.45,3.45,0,0,0-.4,2.91A3.15,3.15,0,0,0,17.86,32.46Z"/><path class="cls-2" d="M30.45,30.59c-.13.09-1.4-1.75-3.4-3.62-.76-.72-1.48-1.37-2.22-1.3a8.75,8.75,0,0,1-1.8.14l0-.18c.18.15.27.24.25.27s-.14,0-.35-.1l-.39-.18H23c.36,0,.9-.25,1.76-.38a2.14,2.14,0,0,1,1.4.36,9.35,9.35,0,0,1,1.21,1A11.7,11.7,0,0,1,30.45,30.59Z"/><path class="cls-2" d="M17.64,32.26s0,0,0,0,.05.06,0,.13-.19,0-.21-.06a.78.78,0,0,1,0-.21c0-.26,0-.66,0-1.14a7.49,7.49,0,0,1,.9-3.72,3.82,3.82,0,0,1,3.27-2,4.5,4.5,0,0,1,1.14.26c.25.09.39.13.39.17s-.16.06-.43,0a7.47,7.47,0,0,0-1.1-.09,3.66,3.66,0,0,0-2.82,1.87,8.63,8.63,0,0,0-1,3.48l-.14,1.12c0,.16,0,.17,0,.2S17.68,32.26,17.64,32.26Z"/><path class="cls-12" d="M19.87,28.83l1.18.84s1.73-.79,1.76-.75,1.75.33,1.75.33l1.37.93,1.24.69,1.89-.07.2.19-.58.76-.84,1.08-.59.54-1.79-.11-2.94.11-1.28.08-.37.08-.7-.4-.73-.53-.53-.46-.5-.5-.12-.17.28-1.11.49-.72Z"/><polygon class="cls-12" points="25 29.27 25.35 28.3 26.63 28.92 27.67 29.64 28.77 30.59 29.06 30.8 27.62 31.15 26.09 30.59 25 29.27"/><polygon class="cls-13" points="20.22 28.45 20.79 29.46 22.76 28.66 24.9 29.03 25.21 28.05 22.94 27.56 20.22 28.45"/><path class="cls-2" d="M21.18,29.12c.05,0,0,.19-.14.33a1,1,0,0,1-.36.15.65.65,0,0,1-.55-.16l0-.05c-.37-.68-.09-1.14,0-1.12s.22.49.39.8h0s.26.07.37,0S21.13,29.07,21.18,29.12Z"/><path class="cls-2" d="M28.77,30.79s-.15.08-.44.13A3.8,3.8,0,0,1,27,31a6.34,6.34,0,0,1-1.58-1,5,5,0,0,0-1.92-.89,2.38,2.38,0,0,0-1.92.41,18,18,0,0,1-1.47,1.12,7.93,7.93,0,0,0-1.06.59c-.22.16-.31.29-.34.28s0-.2.2-.43a5.25,5.25,0,0,1,1-.76c.41-.27.8-.73,1.37-1.19a2.78,2.78,0,0,1,2.31-.53c1.71.31,2.72,1.71,3.5,2.06a6.25,6.25,0,0,0,1.17.06C28.6,30.73,28.77,30.75,28.77,30.79Z"/><path class="cls-2" d="M29.48,31.06a10.91,10.91,0,0,1-1.78-1.27A9.27,9.27,0,0,0,23,27.84a3.83,3.83,0,0,0-2.16.44,5.71,5.71,0,0,0-1.61,1.14,3.32,3.32,0,0,0-1,2.3l0,.6-.17-.56c-.08-.27,0-.4,0-.39s0,.14.1.32l-.15,0a3.1,3.1,0,0,1,.81-2.59,5.79,5.79,0,0,1,1.69-1.3,4.1,4.1,0,0,1,2.43-.52,8.81,8.81,0,0,1,4.88,2.18A7.61,7.61,0,0,1,29.48,31.06Z"/><path class="cls-2" d="M24.56,29c-.09,0-.07-.22.14-.28s.18-.05.19-.05a.64.64,0,0,0,0-.24.34.34,0,0,1,.08-.23s.16,0,.26.1a.57.57,0,0,1,.07.65.43.43,0,0,1-.4.22c-.18,0-.2-.06-.22-.08A.22.22,0,0,0,24.56,29Z"/><polygon class="cls-13" points="21.1 33.66 27.13 33.5 25.59 34.52 24.08 34.83 22.3 34.42 21.1 33.66"/><path class="cls-11" d="M17.64,32.07h.83l.17.15c.9.8,3.44,3.06,6.18,2.66A5.41,5.41,0,0,0,28,33.06a16.18,16.18,0,0,0,1.66-2.6l.49.26s-1,3.06-1.09,3.05S28,35.89,27.16,36s0,1.29-4,1.32S17.64,32.07,17.64,32.07Z"/><path class="cls-2" d="M27.25,33.46c0,.07-.37,0-.95.09s-1.41.14-2.32.17a21.05,21.05,0,0,1-3,0L21,33.5c.09.09.2.08.21.12s-.09.13-.31.06l-.35-.1.39-.09a20.67,20.67,0,0,1,3-.29c.91,0,1.73,0,2.33,0S27.28,33.39,27.25,33.46Z"/><path class="cls-2" d="M29.38,30.8a5.53,5.53,0,0,1-1,1.83A6.28,6.28,0,0,1,24,35.08a4.57,4.57,0,0,1-2.71-.83A21.65,21.65,0,0,1,19.41,33c-1-.84-1.32-1.65-1.26-1.67a11.18,11.18,0,0,0,1.49,1.37c.5.36,1.16.75,1.88,1.17a4.15,4.15,0,0,0,2.44.73,6.38,6.38,0,0,0,4.13-2.16A16.76,16.76,0,0,1,29.38,30.8Z"/><path class="cls-2" d="M17.59,32.24c.09,0,.47,1,1.42,2.37a6.59,6.59,0,0,0,2.12,2,4.62,4.62,0,0,0,1.59.55,3.69,3.69,0,0,0,.88,0l.93-.17a6.65,6.65,0,0,0,1.75-.56,6.52,6.52,0,0,0,1.34-1.06,9.1,9.1,0,0,0,1.05-1.16A4.59,4.59,0,0,0,29.23,33a14.74,14.74,0,0,1,.93-2.64,15,15,0,0,1-.58,2.74A4.47,4.47,0,0,1,29,34.46,7.85,7.85,0,0,1,28,35.72a6.27,6.27,0,0,1-1.43,1.17,6.59,6.59,0,0,1-1.88.62l-1,.18a4.86,4.86,0,0,1-1,0A5,5,0,0,1,20.89,37a6.61,6.61,0,0,1-2.19-2.19A11.7,11.7,0,0,1,17.79,33,2,2,0,0,1,17.59,32.24Z"/><path class="cls-5" d="M38.18,28.63"/><path class="cls-14" d="M38.22,28.05s-.88,4.36.46,6.37a34.17,34.17,0,0,0,2.11,3.89,30.35,30.35,0,0,1,2,3.73,21.59,21.59,0,0,1,.72,2.88,20.15,20.15,0,0,1,.26,5l.74,0a19,19,0,0,0-1.12-8.05,18.8,18.8,0,0,0-3-5.28,11.92,11.92,0,0,1-2.13-8.5Z"/><path class="cls-14" d="M45.14,29s-1.83,4-1.83,4.94c0,0-.26.24-.32,0A16.42,16.42,0,0,1,45.14,29Z"/><path class="cls-2" d="M44.83,37.89s-.32-.16-.68-.66a4.87,4.87,0,0,1-.88-2.47A8.21,8.21,0,0,1,44.19,31L46,26.76a7.63,7.63,0,0,0,.81-3c0-1-.24-2-.22-3a5.67,5.67,0,0,1,1.72-4l.09-.08.09,0a.34.34,0,0,1,.21.42.39.39,0,0,1-.24.3.3.3,0,0,1-.33-.12.4.4,0,0,1,0-.25.32.32,0,0,1,.2-.23c.07,0,.1,0,.1,0s-.12,0-.11.22.06.13.08.1,0-.21,0-.14l.19-.05a5.78,5.78,0,0,0-1.32,3.78c0,.86.28,1.83.31,2.95a8,8,0,0,1-.85,3.36l-1.84,4.22a8.24,8.24,0,0,0-1,3.45,5.13,5.13,0,0,0,.58,2.33C44.67,37.59,44.88,37.85,44.83,37.89Z"/><path class="cls-2" d="M45.25,14.78c-.06.09-.37,0-.8-.21a6.15,6.15,0,0,1-.73-.44l-.4-.3L43,13.59c-.1-.08-.21-.31-.23-.3a.2.2,0,0,0,0,.07h0l.07,0v-.6l0-.49c0-.32.06-.6.1-.83.08-.48.18-.77.29-.77s.2.3.26.77c0,.24.06.52.07.84l0,.49v.36l1.08,1C45.11,14.45,45.31,14.69,45.25,14.78Z"/><polygon class="cls-2" points="45.18 14.46 45.95 13.21 45.36 11.82 43.5 10.8 43.43 13.09 45.18 14.46"/><path class="cls-9" d="M40.27,0l1.37,5.51,2.91-.76,2-.08L50,4.89V0H40.27Z"/><path class="cls-2" d="M45.16,4.7c-.08,0,0-.3-.1-.7a1.87,1.87,0,0,0-.18-.66c-.13-.22-.3-.53-.44-.83A3.89,3.89,0,0,1,44,.79c0-.47.15-.74.2-.72s.09.28.17.69a6.06,6.06,0,0,0,.56,1.53l.41.85a1.81,1.81,0,0,1,.11.85C45.38,4.47,45.22,4.72,45.16,4.7Z"/><path class="cls-2" d="M47.78,4.58s.06.06.08.16h-.18a21.92,21.92,0,0,0-.41-2.16,14.94,14.94,0,0,0-.77-1.47A2.74,2.74,0,0,1,46.3.6s0-.19,0-.2.08,0,.09,0,0,0,0,0,0,0,0,0,0,0,.06.06l.33.4a5.33,5.33,0,0,1,.95,1.49,4.51,4.51,0,0,1,.1,2.34h-.18C47.71,4.63,47.74,4.58,47.78,4.58Z"/><path class="cls-15" d="M40.11,38.26,38.23,35l-.56,1s.91,6.52-.19,10c0,0,2-3.38,2-4.8A12.52,12.52,0,0,1,40.11,38.26Z"/><path class="cls-2" d="M39.9,20.15s.29.37.43,1.19a3.64,3.64,0,0,1-.06,1.52,2.78,2.78,0,0,1-.39.89,7.88,7.88,0,0,0-.47.87,16.49,16.49,0,0,0-1.3,4.72,9,9,0,0,0,0,2.83,11,11,0,0,0,1,2.9c.47,1,1,1.87,1.53,2.73a17.12,17.12,0,0,1,1.49,2.61,20.12,20.12,0,0,1,1.54,4.84,16.76,16.76,0,0,1,.28,3.4,3.66,3.66,0,0,1-.16,1.25c-.15,0,0-1.79-.66-4.54a22.35,22.35,0,0,0-1.65-4.64A17.57,17.57,0,0,0,40,38.21c-.55-.88-1.09-1.8-1.59-2.8a11.87,11.87,0,0,1-1-3.11,9.24,9.24,0,0,1,.06-3.07,15.53,15.53,0,0,1,1.52-4.86,13,13,0,0,0,.93-1.64A3.86,3.86,0,0,0,40,21.37C40,20.6,39.84,20.17,39.9,20.15Z"/><path class="cls-2" d="M39.8,49.9c-.1,0-.3-.61-.51-1.66a16.68,16.68,0,0,1-.18-4.16,27.5,27.5,0,0,1,.49-3.38c.18-.92.26-1.63.31-2l.25,0c-.13.19-.22.28-.26.26s0-.15,0-.37l.12-.48.13.53a7.19,7.19,0,0,1,.06,2.14c-.1,1-.25,2.1-.34,3.34C39.62,47.28,40.06,49.86,39.8,49.9Z"/><path class="cls-15" d="M37.34,0H40.5c1,4.4,1,5.51.75,5.62-.06,0-.41.13-.9.36l-.19.1a8.45,8.45,0,0,0-.29-2A8.71,8.71,0,0,0,37.34,0Z"/><path class="cls-2" d="M41.42,5.27s0,.14.07.18l-.2,0A12.64,12.64,0,0,0,41,3a10.5,10.5,0,0,0-.65-1.85,2.24,2.24,0,0,0-.25-.5S40,.58,40,.52,40,.48,40,.47s0-.06,0,0,.08,0,.17,0a1.21,1.21,0,0,1,.47.48,6,6,0,0,1,.84,1.92,5.37,5.37,0,0,1,0,2.66l-.09.29-.1-.24C41.2,5.3,41.42,5.23,41.42,5.27Z"/><path class="cls-2" d="M49.53,4.91a12.45,12.45,0,0,1-2.11,0,16.08,16.08,0,0,0-4.93.71c-1.81.71-3.43,1.5-4.62,2-.2,0-.17.19,0,.22l.64.16c.35.09.54.16.54.2a1.5,1.5,0,0,1-.58,0l-.67-.07a.59.59,0,0,1-.47-.34.36.36,0,0,1,.08-.31,1.1,1.1,0,0,1,.29-.19,41,41,0,0,1,4.62-2.21,13.84,13.84,0,0,1,5.1-.58A6.38,6.38,0,0,1,49.53,4.91Z"/><path class="cls-16" d="M13.65,1.48l-.29.34L13,7.89l2.66.17s.43-5.81,1.41-6.51Z"/><path class="cls-17" d="M12,5.51a8.82,8.82,0,0,1,4.65.62,9.81,9.81,0,0,1,3.43,2.15L15.71,8s-2.49-1.79-3.87-1.49Z"/><path class="cls-2" d="M12.44,7.87l28,.84S44.7,10.26,42.45,15s-5.44,5.25-6,5.46l-.48.11h0s-1.35.24-2.66.32a12.87,12.87,0,0,1-3.67-.26,2.62,2.62,0,0,0-.4-.12c-.67-.18-.75-.11-1-.21s-.32-.3-1.16-1.17c-.29-.29-.29-.27-.42-.41-1-1.05-.7-2-1.92-4-.16-.25-1.53-2.44-2.78-2.18-.5.1-1,.53-1.36,1.46-1.45,3.51-2.9,4.93-4.11,5.68a6.61,6.61,0,0,1-3.27.8A7.84,7.84,0,0,1,9.73,20c-.36-.14-.48-.23-1.06-.45-1.17-.45-1.56-.37-2.06-.74A3.87,3.87,0,0,1,5.5,17.48a9.9,9.9,0,0,1-1.26-5.9,8.38,8.38,0,0,1,1.11-3.1C5.64,8.33,6,8.2,12.44,7.87Z"/><path class="cls-18" d="M5.69,11S6,8.79,9.54,8.81,17.3,9,17.3,9A2.62,2.62,0,0,1,19.58,12c-.28,2.56-.46,7.12-4.51,7.37s-8.71.3-9.32-2.77A14.88,14.88,0,0,1,5.69,11Z"/><path class="cls-19" d="M9,8C8.56,8,5.9,8,4.83,9.8c-.5.84-.48,1.78-.44,3.3a15,15,0,0,0,.5,3.47,5.36,5.36,0,0,0,.73,1.25,5.59,5.59,0,0,0,3.19,2l-.14-.41a3.45,3.45,0,0,1-.76-.16,3.41,3.41,0,0,1-1-.48A4,4,0,0,1,5.64,17.2h0s-.47-.8-.59-4.59A4.15,4.15,0,0,1,6.21,9.28a3.78,3.78,0,0,1,2.57-.79c.13,0,.53.1.58,0S9.17,8.18,9,8Z"/><path class="cls-18" d="M25.56,13.37S24.44,8.4,29,9.14H40a3.13,3.13,0,0,1,2.41,3.94c-.62,3.39-2,6.17-5.48,6.58a26,26,0,0,1-6.71,0C27.89,19.5,26,16.86,25.56,13.37Z"/><path class="cls-20" d="M26.31,11.17s0-1.81,3.49-1.35A71.33,71.33,0,0,1,38,9.74c2.18.29,2.41-.21,3.75,1.43s-2.41,8.8-2.87,6.48c0,0,.67-1.29,1.24-1.23s-2,0-2.18-.63-1.86-1-1.86-1,2.67-.42,2.41-1-3.39.18-3.39.18S33.5,11.45,26.31,11.17Z"/><path class="cls-9" d="M6.77,17.73a8.2,8.2,0,0,1-.31-7.21S7,8.9,9.91,9.34c0,0,5.5-.32,8.23.29C18.14,9.63,5.45,6.89,6.77,17.73Z"/><path class="cls-20" d="M8.24,18.15s-1.19-.25-1.13-.78-.58-3,.87-5,7.93-3.75,10.27-2.15c0,0,1.56,1.42-.57,2.56S7.63,12.42,8.24,18.15Z"/><path class="cls-21" d="M8.73,21.9l6.29.41S14.63,39,19.64,42.45c0,0-2.46-.11-5.46-5.63,0,0-4.33-5-4.84-7.07A58.29,58.29,0,0,1,8.73,21.9Z"/><path class="cls-2" d="M15.31,49.08c-.12,0-.14-.7-.61-1.71-.22-.51-.55-1.09-.89-1.78A7.44,7.44,0,0,1,13,43.15,23.68,23.68,0,0,1,13,39.44a22.51,22.51,0,0,1,.17-2.29v0h0A.16.16,0,0,1,13.4,37a.17.17,0,0,1,.08.18.13.13,0,0,1-.15.11.14.14,0,0,1-.09-.07c-.07-.12,0-.17,0-.13s0,0,.05,0,0,0,0,0,0,0,0,0-.06,0-.05,0,0-.08,0,0l.08,0a20.67,20.67,0,0,1,.2,2.27c.08,1,0,2.3.21,3.61.18,1.65,1.08,3,1.41,4.14S15.4,49.1,15.31,49.08Z"/><path class="cls-2" d="M20.79,42.94s-.07.11-.27.25l0-.19c.61,0,2,0,3.78,0A17.2,17.2,0,0,0,30.62,42c2.65-1.09,4.4-3.3,5.67-4.69s1.84-2.53,1.94-2.47a7.4,7.4,0,0,1-1.5,2.81,25.13,25.13,0,0,1-2.26,2.64,11,11,0,0,1-3.55,2.44,15.85,15.85,0,0,1-6.66.94,26.28,26.28,0,0,1-3.79-.44l-.35-.07.31-.12C20.65,42.93,20.78,42.9,20.79,42.94Z"/><path class="cls-2" d="M21.05,43c0,.05-.43.1-1.16-.08a6.78,6.78,0,0,1-2.75-1.56,26.3,26.3,0,0,1-3-3.49l-3.44-4.43a11.17,11.17,0,0,1-1.59-2.54,9.08,9.08,0,0,1-.6-2.75c-.12-1.75-.07-3.29-.1-4.6,0-2.59-.32-4.17-.21-4.2a11.45,11.45,0,0,1,.76,4.18c.11,1.3.12,2.87.27,4.56a8.65,8.65,0,0,0,.59,2.51,11.1,11.1,0,0,0,1.5,2.36l3.4,4.47a29.92,29.92,0,0,0,2.84,3.53A8,8,0,0,0,21.05,43Z"/><path class="cls-22" d="M0,35.87C4,34.54,6.05,33,7.2,31.75c.23-.25.57-.65.88-.56,1.19.34,0,7.64-.7,8.65A20.91,20.91,0,0,1,4.07,43L0,45.65Z"/><polygon class="cls-23" points="9.91 34.42 9.4 37.08 11.11 36.13 10.12 33.4 9.4 34.39 9.91 34.42"/><path class="cls-24" d="M5.33,23.46c-.59,1.81-2.05,7,.37,10.7.51.78,1.39,2.13,2.74,2.15,1.72,0,2.84-2.06,2.9-2.18l.76.94c-.09.19-1.29,2.71-3.38,2.81a3.87,3.87,0,0,1-2.8-1.36c-3.6-3.62-2.35-11-2.35-11Z"/><path class="cls-15" d="M21.05,22.4l-2,.33a3.41,3.41,0,0,1-.33-1,3.24,3.24,0,0,1,.12-1.55c.65-1.74,7.58-.61,7.74-.24s.9.31.71,2-2.29.8-2.29.8,1-.59.87-1.15A1.53,1.53,0,0,0,23.65,21c-.39.42-.11,1.23-.09,1.29H22.31c-.32-1.09-1.18-1.69-1.86-1.55a1.43,1.43,0,0,0-.84.68,2.27,2.27,0,0,0,.43.53A2.11,2.11,0,0,0,21.05,22.4Z"/><path class="cls-2" d="M23.53,22.35s0-.05,0-.13c-.08-.44-.23-1.9,1.07-1.63,1.53.31,1.5,1.19,1.5,1.19s-.28,1.28-1.22.07S23.53,22.35,23.53,22.35Z"/><path class="cls-2" d="M22.13,22s-.95-1.9-2.09-1.08.2,1.22.2,1.22A1.85,1.85,0,0,1,22.13,22Z"/><path class="cls-2" d="M26,23.24s0-.17.16-.33a5.6,5.6,0,0,1,.69-.52,1.44,1.44,0,0,0,.07-2c-.58-.79-1.41-1.44-1.81-2.11S24.74,17,24.84,17s.23.41.7.88a19.68,19.68,0,0,1,2,2A2.39,2.39,0,0,1,28,21.65a1.59,1.59,0,0,1-.87,1.22,7.92,7.92,0,0,1-.81.29C26.14,23.22,26,23.27,26,23.24Z"/><path class="cls-21" d="M20.11,17.2s.59-1.91.94-1.91-.19,2.07-.19,2.07-.43,2.57-1.22,2.91a1.42,1.42,0,0,0-.89,1,2.22,2.22,0,0,1,.89-2.54S20.29,17.63,20.11,17.2Z"/><path class="cls-2" d="M19.25,23.07c0,.08-.49,0-.93-.58A2.68,2.68,0,0,1,18,19.86a5.31,5.31,0,0,1,1.67-1.95,5.73,5.73,0,0,1,.61-.45l.1-.05a.18.18,0,0,1,.2,0c.09.23-.15.11-.07.1s0,0,0,0,0,0,0,0,0,.09,0,.09l0,.11a4.87,4.87,0,0,1-.42.61,9.41,9.41,0,0,0-1.34,1.85,2.63,2.63,0,0,0,.11,2.05C19,22.71,19.32,23,19.25,23.07Z"/><path class="cls-25" d="M20.48,30.76s1.4-1.43,2.61-1.36a7.88,7.88,0,0,1,3,1.4,2.25,2.25,0,0,0,1.88.38"/></g><g id="Слой_3" data-name="Слой 3"><path class="cls-2" d="M11.34,34a1.57,1.57,0,0,1-.29.69A3.4,3.4,0,0,1,9.52,36.1a2.87,2.87,0,0,1-1.46.23,2.58,2.58,0,0,1-1.52-.78,7.27,7.27,0,0,1-1.08-1.46A5.68,5.68,0,0,1,5,33.25a5.53,5.53,0,0,1-.28-1,16.32,16.32,0,0,1,0-6.67A8,8,0,0,1,5.59,23c.08,0-.26,1-.52,2.68a18.26,18.26,0,0,0,.15,6.5,5,5,0,0,0,.25.88,7.37,7.37,0,0,0,.43.78,7.56,7.56,0,0,0,1,1.38,2.25,2.25,0,0,0,2.5.54,3.5,3.5,0,0,0,1.5-1.16C11.17,34.23,11.3,34,11.34,34Z"/><path class="cls-2" d="M12.17,35s0,.28-.25.75a4.66,4.66,0,0,1-1.34,1.71A3.38,3.38,0,0,1,7.39,38a6,6,0,0,1-2.74-2.85,13,13,0,0,1-1.44-6.92,15.73,15.73,0,0,1,.29-2.12c.12-.5.21-.76.25-.75s-.15,1.11-.17,2.89a13.82,13.82,0,0,0,1.53,6.65,5.73,5.73,0,0,0,2.46,2.66,3,3,0,0,0,2.79-.42,5,5,0,0,0,1.38-1.51C12,35.22,12.13,35,12.17,35Z"/><path class="cls-2" d="M7.44,7.84c-.09-.08.13-.45.23-1.1a17.12,17.12,0,0,0,0-2.7c0-.59,0-1.14,0-1.64l0-.7A1.25,1.25,0,0,1,7.93,1L8.34.5l.06.59c.06.59,0,1-.05,1s-.26-.32-.47-1l.47.13a4.3,4.3,0,0,0,0,1.11c0,.49.06,1,.07,1.63A8.07,8.07,0,0,1,8.2,6.87C7.93,7.62,7.5,7.91,7.44,7.84Z"/><path class="cls-2" d="M1.82,8.58c-.1,0,0-.49.19-1.18a16,16,0,0,0,.6-2.65c.1-1,0-2,.11-2.8.08-.41.16-.6.11-.7s-.15-.14-.17-.19.14-.2.39,0a.65.65,0,0,1,.22.45c0,.19,0,.33,0,.5a24.24,24.24,0,0,1,.11,2.84A8.16,8.16,0,0,1,2.53,7.6C2.19,8.25,1.92,8.62,1.82,8.58Z"/><path class="cls-2" d="M3.81,13.57c.22,0,.57,1.18,1,3.13a11.09,11.09,0,0,0,.41,1.49,5.28,5.28,0,0,0,.33.73,2.67,2.67,0,0,0,.19.28,1,1,0,0,0,.23.18,1.89,1.89,0,0,1,.57.59,1.72,1.72,0,0,1,.21.87A2,2,0,0,1,6,22.32a3.28,3.28,0,0,1-2.77.59,3.59,3.59,0,0,1-2-1.22,3.86,3.86,0,0,1-.8-2.05,7.34,7.34,0,0,1,.5-3.41A6.53,6.53,0,0,1,2.3,14.05,6.08,6.08,0,0,1,3,13.47l.33-.2a.66.66,0,0,1,.25,0,.28.28,0,0,1,.29.21l0,.31-.21-.06c-.22,0-.33-.11-.34-.18s.11-.13.33-.2l-.09.23c.05,0,0,0,0,.08s0,.05,0,.09a2.35,2.35,0,0,1-.17.24A7.16,7.16,0,0,0,3,14.6a7.41,7.41,0,0,0-.92,2c-.42,1.56-.6,4.37,1.5,4.75A1.8,1.8,0,0,0,5,21.13a.52.52,0,0,0,.23-.34,1,1,0,0,0,0-.11s0,0-.13-.13a2.21,2.21,0,0,1-.49-.48,3.42,3.42,0,0,1-.31-.53,5.62,5.62,0,0,1-.34-1,9.84,9.84,0,0,1-.27-1.71C3.56,14.84,3.6,13.6,3.81,13.57Z"/><path class="cls-2" d="M2.07,27.7a4,4,0,0,1,.56-1.34,13.35,13.35,0,0,1,2-2.9c.94-1.05,2.22-1.54,2.3-2.36a.88.88,0,0,0-.22-.83c-.16-.15-.3-.12-.31-.16s.15-.15.42,0a1.05,1.05,0,0,1,.47,1,2.1,2.1,0,0,1-.88,1.42A13.37,13.37,0,0,0,5,23.82a21,21,0,0,0-2,2.73C2.46,27.29,2.14,27.74,2.07,27.7Z"/><path class="cls-2" d="M1.23,23.59c0-.07.35-.15.91-.21A8.09,8.09,0,0,0,4.24,23a2.94,2.94,0,0,0,.88-.67,4.49,4.49,0,0,0,.65-.7,1.64,1.64,0,0,0,.28-.54c0-.21.22-.23.23-.17a.22.22,0,0,0,0,.19,1.45,1.45,0,0,1-.17.71,3.77,3.77,0,0,1-.62.84,3,3,0,0,1-1,.82,5.32,5.32,0,0,1-2.28.26C1.58,23.72,1.23,23.66,1.23,23.59Z"/><path class="cls-2" d="M8.5,24c-.09.07-.76-.41-1.26-1.36a3.6,3.6,0,0,1-.32-1.27c0-.29-.12-.44-.08-.5s.29.05.44.4a9.84,9.84,0,0,0,.43,1.14C8.14,23.2,8.63,23.87,8.5,24Z"/><path class="cls-2" d="M6.48,24.59c-.12.07-.58-.58-.49-1.51A3.6,3.6,0,0,1,6.29,22c.1-.24.14-.4.22-.4s.15.17.14.47-.11.67-.14,1C6.43,23.89,6.61,24.52,6.48,24.59Z"/><path class="cls-2" d="M5.69,25.74c-.14-.07.3-.76,1.17-1a4.34,4.34,0,0,1,1.06-.17.67.67,0,0,1,.38.09c.09.07.08.14,0,.16a1.86,1.86,0,0,0-.37.12c-.25.09-.6.19-1,.3C6.27,25.45,5.8,25.82,5.69,25.74Z"/><path class="cls-2" d="M4.72,27.18s-.12-.09,0-.25A.43.43,0,0,1,5,26.77a.87.87,0,0,1,.36,0,1.41,1.41,0,0,0,.68,0,3.06,3.06,0,0,1,.48-.07h.29a.54.54,0,0,1,.4.24l0,.06c0,.07,0,0,.1,0a1.17,1.17,0,0,0,.33-.2,1.77,1.77,0,0,1,.79-.41.61.61,0,0,1,.61.26c.09.15,0,.24,0,.24s-.21-.25-.54-.14a1.87,1.87,0,0,0-.56.42,1.42,1.42,0,0,1-.47.31.71.71,0,0,1-.4,0,.43.43,0,0,1-.33-.29v0H6.52l-.45,0a1.43,1.43,0,0,1-.86-.13C4.84,26.92,4.77,27.15,4.72,27.18Z"/><path class="cls-2" d="M4.65,29.57c0-.07.28-.22.77-.4s1.26-.38,1.22-1a3.39,3.39,0,0,1,0-.63A1.24,1.24,0,0,1,7,26.93a2,2,0,0,1,.87-.53c.6-.17,1,.17.88.21s-.32-.08-.75.14a1.93,1.93,0,0,0-.64.49c-.19.24-.19.44-.16.91a1.13,1.13,0,0,1-.21.7,1.37,1.37,0,0,1-.5.41,3.3,3.3,0,0,1-.93.27C5,29.62,4.67,29.64,4.65,29.57Z"/><path class="cls-2" d="M5.18,30.29c.05.07,0,.2-.14.35l-.36.43.05-.63a4.19,4.19,0,0,1,.14-.64,1.45,1.45,0,0,1,.19-.37.47.47,0,0,1,.44-.21.3.3,0,0,1,.26.21c0,.09,0,.13-.06.13a.18.18,0,0,0-.2,0s-.06.12-.14.4a2.83,2.83,0,0,1-.25.55l-.3-.21C5,30.25,5.14,30.23,5.18,30.29Z"/><path class="cls-2" d="M3.37,31.56c0,.07-.39.18-.79-.22a4.25,4.25,0,0,1-.76-1.74,6.32,6.32,0,0,1-.07-1.05,1,1,0,0,1,.49-.83c.53-.27.87,0,.82,0s-.32,0-.61.26a.69.69,0,0,0-.22.55c0,.27.07.61.1.94a7.2,7.2,0,0,0,.54,1.6C3.08,31.45,3.37,31.49,3.37,31.56Z"/><path class="cls-1" d="M11.41,22.07h.69s.4,5,1.23,5.76C13.33,27.83,10.88,24.47,11.41,22.07Z"/><path class="cls-9" d="M9.28,0c0,.43,0,1.06.06,1.83.1,1.4.29,1.83.43,3.33.06.63.07,1.15.11,2.2s0,2.14,0,2.85c0,.5,0,1.2,0,2,0,1.7,0,3.29.16,6.39a11.17,11.17,0,0,0,.21,2.11A10.87,10.87,0,0,0,11,23.07c-.06-.41-.09-.88-.12-1.4A3.72,3.72,0,0,1,11,20s.31-7.69.33-8.15.17-6.56.17-6.56c.05-.54.11-1.1.18-1.67.16-1.26.35-2.47.57-3.62Z"/><path class="cls-2" d="M15,28.52a3,3,0,0,1-1.12-.37,5.32,5.32,0,0,1-1.19-.74,5.09,5.09,0,0,1-1.13-1.5A22.63,22.63,0,0,1,9.7,21.57a11.71,11.71,0,0,1-.31-1.36c-.06-.47-.08-.95-.13-1.43-.09-1-.11-2-.11-3,0-4.07.09-7.74,0-10.4a43,43,0,0,1-.06-4.3,16.58,16.58,0,0,1,.62,4.28c.2,2.67.17,6.36.19,10.42,0,1,0,2,.1,2.93,0,.47.05.94.1,1.38a12.6,12.6,0,0,0,.26,1.28,24.91,24.91,0,0,0,1.69,4.29A4.91,4.91,0,0,0,13,27.09a5.5,5.5,0,0,0,1,.79A4.29,4.29,0,0,1,15,28.52Z"/><path class="cls-2" d="M12,2s0,0,.05-.08,0-.16-.05-.13l.1-.09c0,.75,0,2.4-.05,4.64s0,5.06-.08,8.13c-.06,1.83-.17,3.58-.35,5.16a15.51,15.51,0,0,0-.09,4.1,17.75,17.75,0,0,0,1.22,3.59s-.31-.24-.68-.81A8.59,8.59,0,0,1,11,23.84a14.58,14.58,0,0,1-.08-4.27c.14-1.57.23-3.29.28-5.11.09-3.06.12-5.88.25-8.13a40,40,0,0,1,.47-4.64l0-.1H12a.2.2,0,0,1,.18.22.29.29,0,0,1-.05.17C12.09,2.06,12,2,12,2Z"/><path class="cls-21" d="M13.63,39.23a28.53,28.53,0,0,1,2,3.69A30.14,30.14,0,0,1,17.8,50H13.24Z"/><path class="cls-2" d="M15.39,49.83c-.14,0-.06-.78-.41-1.88s-1.42-2.45-1.78-4.41a19.36,19.36,0,0,1-.12-3.95c0-1.1.1-2,.17-2.41v-.06a.18.18,0,0,1,.25,0,.19.19,0,0,1,.08.18.13.13,0,0,1-.24,0c-.06-.12.06-.17.05-.13s0,0,0,0,0,0,0,0,0,0,0,0l0,0s0-.08,0,0l.08,0a22.64,22.64,0,0,1,.2,2.39A34.83,34.83,0,0,0,14,43.4c.29,1.72,1.32,3.12,1.55,4.41A2.84,2.84,0,0,1,15.39,49.83Z"/><path class="cls-2" d="M13,50c-.24,0-.19-1.92-.17-4.21,0-1.16.06-2.21.13-3,0-.38.11-.73.09-.82s-.17-.11-.15-.14.18-.25.41,0a2.27,2.27,0,0,1,.2,1c.07.76.11,1.81.11,3C13.63,48.16,13.23,50,13,50Z"/><path class="cls-26" d="M19.08,42l.23,0c1.33.25,7.9,1.35,12.49-.66A8.76,8.76,0,0,1,25.44,43S19.83,43.69,19.08,42Z"/><path class="cls-2" d="M20.79,43s-.07.11-.26.25l0-.19c.6,0,1.91,0,3.66,0a18.09,18.09,0,0,0,6.15-.92,11.46,11.46,0,0,0,5.49-4.38A12.8,12.8,0,0,1,37.19,36c.38-.38.65-.53.68-.49s-.7.91-1.62,2.56a10.93,10.93,0,0,1-5.68,4.81,16,16,0,0,1-6.44.8,25.33,25.33,0,0,1-3.66-.43l-.36-.08.32-.11C20.65,43,20.78,42.93,20.79,43Z"/><path class="cls-2" d="M21.52,43.28s-.42.1-1.14-.07a6.82,6.82,0,0,1-2.73-1.48,25.54,25.54,0,0,1-3-3.39L11.18,34a11.67,11.67,0,0,1-1.6-2.46A8.31,8.31,0,0,1,9,28.87c-.13-1.73-.08-3.24-.11-4.52,0-2.55-.32-4.1-.21-4.13a11.17,11.17,0,0,1,.77,4.11c.33,2.5-.43,6.36,2.4,9.22l3.38,4.35A31.73,31.73,0,0,0,18,41.32,8.23,8.23,0,0,0,21.52,43.28Z"/></g></svg>