<svg width="250" height="33" viewBox="0 0 250 33" fill="none" xmlns="http://www.w3.org/2000/svg">
<path d="M62.131 22.795C67.4283 23.085 71.0147 23.23 72.89 23.23C73.3347 23.23 73.6827 23.1043 73.934 22.853C74.2047 22.5823 74.34 22.2247 74.34 21.78V19.17H67.67C65.64 19.17 64.161 18.7157 63.233 17.807C62.3243 16.879 61.87 15.4 61.87 13.37V12.5C61.87 10.47 62.3243 9.00067 63.233 8.092C64.161 7.164 65.64 6.7 67.67 6.7H77.849V10.76H68.83C67.67 10.76 67.09 11.34 67.09 12.5V13.08C67.09 14.24 67.67 14.82 68.83 14.82H74.05C75.9447 14.82 77.3367 15.2647 78.226 16.154C79.1153 17.0433 79.56 18.4353 79.56 20.33V21.78C79.56 23.6747 79.1153 25.0667 78.226 25.956C77.3367 26.8453 75.9447 27.29 74.05 27.29C73.064 27.29 72.02 27.2707 70.918 27.232L68.25 27.116C66.278 27.0193 64.2383 26.884 62.131 26.71V22.795ZM91.3084 27H86.0884V10.76H79.9984V6.7H97.3984V10.76H91.3084V27ZM113.207 12.21C113.207 11.05 112.627 10.47 111.467 10.47H106.537C105.377 10.47 104.797 11.05 104.797 12.21V21.49C104.797 22.65 105.377 23.23 106.537 23.23H111.467C112.627 23.23 113.207 22.65 113.207 21.49V12.21ZM118.427 21.49C118.427 23.52 117.963 24.999 117.035 25.927C116.126 26.8357 114.657 27.29 112.627 27.29H105.377C103.347 27.29 101.868 26.8357 100.94 25.927C100.031 24.999 99.5768 23.52 99.5768 21.49V12.21C99.5768 10.18 100.031 8.71067 100.94 7.802C101.868 6.874 103.347 6.41 105.377 6.41H112.627C114.657 6.41 116.126 6.874 117.035 7.802C117.963 8.71067 118.427 10.18 118.427 12.21V21.49ZM122.065 6.7H134.245C136.275 6.7 137.745 7.164 138.653 8.092C139.581 9.00067 140.045 10.47 140.045 12.5V15.11C140.045 16.7147 139.775 17.9617 139.233 18.851C138.711 19.7403 137.87 20.33 136.71 20.62L140.335 27H134.68L131.345 20.91H127.285V27H122.065V6.7ZM134.825 12.5C134.825 11.34 134.245 10.76 133.085 10.76H127.285V16.85H133.085C134.245 16.85 134.825 16.27 134.825 15.11V12.5ZM161.062 15.69L157.002 22.94H152.942L148.882 15.69V27H143.662V6.7H149.172L154.972 17.43L160.772 6.7H166.282V27H161.062V15.69Z" fill="#F7F9FB"/>
<path d="M188.189 27H182.969V18.735H175.719V27H170.499V6.7H175.719V14.675H182.969V6.7H188.189V27ZM205.457 12.21C205.457 11.05 204.877 10.47 203.717 10.47H198.787C197.627 10.47 197.047 11.05 197.047 12.21V21.49C197.047 22.65 197.627 23.23 198.787 23.23H203.717C204.877 23.23 205.457 22.65 205.457 21.49V12.21ZM210.677 21.49C210.677 23.52 210.213 24.999 209.285 25.927C208.377 26.8357 206.907 27.29 204.877 27.29H197.627C195.597 27.29 194.118 26.8357 193.19 25.927C192.282 24.999 191.827 23.52 191.827 21.49V12.21C191.827 10.18 192.282 8.71067 193.19 7.802C194.118 6.874 195.597 6.41 197.627 6.41H204.877C206.907 6.41 208.377 6.874 209.285 7.802C210.213 8.71067 210.677 10.18 210.677 12.21V21.49ZM213.707 22.795C219.004 23.085 222.591 23.23 224.466 23.23C224.911 23.23 225.259 23.1043 225.51 22.853C225.781 22.5823 225.916 22.2247 225.916 21.78V19.17H219.246C217.216 19.17 215.737 18.7157 214.809 17.807C213.9 16.879 213.446 15.4 213.446 13.37V12.5C213.446 10.47 213.9 9.00067 214.809 8.092C215.737 7.164 217.216 6.7 219.246 6.7H229.425V10.76H220.406C219.246 10.76 218.666 11.34 218.666 12.5V13.08C218.666 14.24 219.246 14.82 220.406 14.82H225.626C227.521 14.82 228.913 15.2647 229.802 16.154C230.691 17.0433 231.136 18.4353 231.136 20.33V21.78C231.136 23.6747 230.691 25.0667 229.802 25.956C228.913 26.8453 227.521 27.29 225.626 27.29C224.64 27.29 223.596 27.2707 222.494 27.232L219.826 27.116C217.854 27.0193 215.814 26.884 213.707 26.71V22.795ZM242.884 27H237.664V10.76H231.574V6.7H248.974V10.76H242.884V27Z" fill="#F1F5F9" fill-opacity="0.9"/>
<path fill-rule="evenodd" clip-rule="evenodd" d="M17.8725 18.625H13.2769L0 28.9253L17.0216 29.0106C24.9372 29.0106 33.1069 26.0737 33.1069 18.668C33.1069 11.2623 24.8511 6.4531 10.9783 11.5602C10.0429 12.5817 6.04247 16.328 5.36124 17.0084C18.5529 10.3699 30.1701 10.7176 30.1701 18.6258C30.1701 26.1168 18.2127 26.1168 17.0216 26.1168H8.34026L17.8725 18.625Z" fill="#F7F9FB" fill-opacity="0.86"/>
<path fill-rule="evenodd" clip-rule="evenodd" d="M10.9782 11.5594C10.0429 12.5808 6.04243 16.3272 5.36121 17.0076C8.30629 15.5176 11.1736 14.3919 13.8496 13.6114C15.842 10.9833 21.1916 3.8143 28.7654 3.8143C36.8508 3.8143 39.574 8.58205 39.574 11.3906C39.574 14.4548 37.2762 16.7543 37.2762 16.7543C37.2762 16.7543 40.7651 16.9248 42.4678 16.9248C44.1704 16.9248 49.0209 17.4355 49.0209 22.1172C49.0209 26.7989 43.4892 27.4809 41.6169 27.4809H32.3479L28.6893 30.3755L41.1997 30.4599C46.8167 30.4599 52.0082 27.6506 52.0082 22.118C52.0082 16.5854 47.2421 14.1163 42.3072 14.1163C42.8179 13.2654 42.9884 12.4136 42.9884 11.3848C42.9884 10.3559 41.2866 1 28.6048 1C20.4351 1 15.4025 7.45634 10.9882 11.5553L10.9782 11.5594Z" fill="#F7F9FB"/>
<path fill-rule="evenodd" clip-rule="evenodd" d="M32.3315 27.4834H37.0537L33.2743 30.4202L28.5951 30.3746L32.3315 27.4834Z" fill="#F7F9FB"/>
<path fill-rule="evenodd" clip-rule="evenodd" d="M13.8496 13.6106L13.7627 13.6371C11.8473 14.2579 7.74922 15.9547 5.36121 17.0059C6.04243 16.3255 10.0421 12.5792 10.9782 11.5578C13.0972 10.7772 15.0863 10.2293 16.9346 9.88577C15.5606 11.3426 14.516 12.7299 13.8496 13.6089V13.6106Z" fill="#F7F9FB"/>
</svg>
