<svg width="1018" height="1255" viewBox="0 0 1018 1255" fill="none" xmlns="http://www.w3.org/2000/svg">
    <path d="M0.0563965 273.172L152.037 544.827V710.529L0.234188 981.65L0.0563965 273.172Z" fill="#5B57A2"/>
    <path d="M583.6 445.975L726.011 358.689L1017.46 358.417L583.6 624.206V445.975Z" fill="#D90751"/>
    <path d="M582.795 271.572L583.6 631.234L431.264 537.632V0L582.795 271.572Z" fill="#FAB718"/>
    <path d="M1017.46 358.418L726.001 358.689L582.795 271.572L431.264 0L1017.46 358.418Z" fill="#ED6F26"/>
    <path d="M583.6 983.156V808.659L431.264 716.835L431.348 1255L583.6 983.156Z" fill="#63B22F"/>
    <path d="M725.656 896.666L152.026 544.827L0.0563965 273.172L1016.85 896.31L725.656 896.666Z" fill="#1487C9"/>
    <path d="M431.358 1255L583.59 983.157L725.645 896.666L1016.84 896.311L431.358 1255Z" fill="#017F36"/>
    <path d="M0.234131 981.65L432.508 716.845L287.179 627.678L152.037 710.529L0.234131 981.65Z" fill="#984995"/>
</svg>
