<svg xmlns="http://www.w3.org/2000/svg" xmlns:xlink="http://www.w3.org/1999/xlink" version="1.1" width="256" height="256" viewBox="0 0 256 256" xml:space="preserve">

<defs>
</defs>
<g style="stroke: none; stroke-width: 0; stroke-dasharray: none; stroke-linecap: butt; stroke-linejoin: miter; stroke-miterlimit: 10; fill: none; fill-rule: nonzero; opacity: 1;" transform="translate(1.4065934065934016 1.4065934065934016) scale(2.81 2.81)" >
	<linearGradient id="SVGID_1" gradientUnits="userSpaceOnUse" x1="45" y1="86.7155" x2="45" y2="1.2926">
<stop offset="0%" style="stop-color:rgb(24,132,182);stop-opacity: 1"/>
<stop offset="100%" style="stop-color:rgb(16,27,47);stop-opacity: 1"/>
</linearGradient>
<circle cx="45" cy="45" r="45" style="stroke: none; stroke-width: 1; stroke-dasharray: none; stroke-linecap: butt; stroke-linejoin: miter; stroke-miterlimit: 10; fill: url(#SVGID_1); fill-rule: nonzero; opacity: 1;" transform="  matrix(1 0 0 1 0 0) "/>
	<path d="M 60.016 16.324 c -9.498 0 -17.197 7.7 -17.197 17.197 h 0 L 32.132 49.18 c -0.29 -0.019 -0.581 -0.03 -0.876 -0.03 c -2.805 0 -5.404 0.88 -7.537 2.378 L 0.143 41.57 C 0.058 42.703 0 43.845 0 45 c 0 4.464 0.66 8.772 1.87 12.842 l 16.466 6.788 c 1.108 6.13 6.471 10.78 12.92 10.78 c 7.252 0 13.13 -5.878 13.13 -13.13 c 0 -0.242 -0.007 -0.482 -0.02 -0.721 l 0.001 0.001 L 59.62 50.713 c 0.131 0.003 0.263 0.005 0.395 0.005 c 9.498 0 17.197 -7.7 17.197 -17.197 S 69.513 16.324 60.016 16.324 z M 31.256 71.95 c -3.892 0 -7.247 -2.3 -8.78 -5.615 c 2.236 0.92 6.195 2.957 8.479 2.957 c 3.954 0 7.159 -3.206 7.159 -7.159 c 0 -6.036 -5.898 -7.014 -10.32 -8.882 c 1.075 -0.412 2.242 -0.639 3.462 -0.639 c 5.34 0 9.669 4.329 9.669 9.669 S 36.596 71.95 31.256 71.95 z M 60.067 44.848 c -6.284 0 -11.378 -5.094 -11.378 -11.378 s 5.094 -11.378 11.378 -11.378 c 6.284 0 11.378 5.094 11.378 11.378 S 66.351 44.848 60.067 44.848 z" style="stroke: none; stroke-width: 1; stroke-dasharray: none; stroke-linecap: butt; stroke-linejoin: miter; stroke-miterlimit: 10; fill: rgb(254,254,254); fill-rule: nonzero; opacity: 1;" transform=" matrix(1 0 0 1 0 0) " stroke-linecap="round" />
	<path d="M 60.067 24.779 c -4.8 0 -8.69 3.891 -8.69 8.691 s 3.891 8.69 8.69 8.69 c 4.8 0 8.691 -3.891 8.691 -8.69 S 64.867 24.779 60.067 24.779 z" style="stroke: none; stroke-width: 1; stroke-dasharray: none; stroke-linecap: butt; stroke-linejoin: miter; stroke-miterlimit: 10; fill: rgb(254,254,254); fill-rule: nonzero; opacity: 1;" transform=" matrix(1 0 0 1 0 0) " stroke-linecap="round" />
</g>
</svg>